<?xml version="1.0" encoding="utf-8" ?><svg xmlns="http://www.w3.org/2000/svg" xmlns:xlink="http://www.w3.org/1999/xlink" width="600" height="321" viewBox="0 0 600 321"><path fill="#FDFCFE" d="M0 0L7.26147 0L7.77318 0L600 0L600 57.6235L600 115.372L600 116.019L600 321L0 321L0 116.036L0 115.406L0 57.645L0 7.55702L0 6.4619L0 0Z"/><path fill="#FDFCFE" d="M0 0L7.26147 0L7.77318 0L600 0L600 57.6235L600 115.372L600 116.019L0 116.036L0 115.406L0 57.645L0 7.55702L0 6.4619L0 0Z"/><path fill="#DFE0E3" d="M0 0L7.26147 0L7.77318 0L600 0L600 57.6235L599.707 57.6331C585.257 57.9888 569.185 57.6506 554.636 57.6505L465.521 57.6447L413.502 57.648C404.741 57.6471 395.958 57.772 387.205 57.4749C382.515 57.3157 377.856 54.1385 377.16 49.2997C375.98 41.1096 377.134 32.4563 376.757 24.1511C376.117 10.0333 367.425 11.0607 356.772 11.1156L340.031 11.1249L283.726 11.1276L187.368 11.1283C170.909 11.1228 154.4 11.0779 137.943 11.1307C134.813 11.0995 130.559 11.6352 128.212 14.0095C118.34 23.9988 133.668 54.1976 115.447 57.2696C112.355 57.7909 104.265 57.6474 100.989 57.6484L78.2726 57.6509L0 57.645L0 7.55702L0 6.4619L0 0Z"/><path fill="#FDFCFE" d="M0 0L7.26147 0C6.68997 0.450819 4.4557 1.92939 4.29401 2.14954C4.09875 3.6304 2.12745 4.33505 1.71915 5.59561L0 7.55702L0 6.4619L0 0Z"/><path fill="#979496" d="M4.29401 2.14954C4.09875 3.6304 2.12745 4.33505 1.71915 5.59561L0 7.55702L0 6.4619C1.4015 4.90619 2.63322 3.43012 4.29401 2.14954Z"/><path fill="#B6B6B8" d="M7.26147 0L7.77318 0C7.61037 0.677082 2.99659 4.27774 1.71915 5.59561C2.12745 4.33505 4.09875 3.6304 4.29401 2.14954C4.4557 1.92939 6.68997 0.450819 7.26147 0Z"/><path fill="#FA5E5B" d="M33.6086 21.4947C38.0436 20.3147 42.5977 22.9434 43.7927 27.3731C44.9878 31.8028 42.3735 36.3643 37.9465 37.5737C33.4987 38.7889 28.9096 36.1603 27.7089 31.7098C26.5082 27.2592 29.1528 22.6802 33.6086 21.4947Z"/><path fill="#2FC745" d="M88.3289 21.5337C92.7488 20.3275 97.311 22.9271 98.5251 27.3436C99.7392 31.7601 97.1467 36.3254 92.731 37.5468C88.3045 38.7711 83.7243 36.1717 82.5072 31.7444C81.2902 27.3171 83.8982 22.7428 88.3289 21.5337Z"/><path fill="#FDB93C" d="M61.4704 21.4817C65.9066 20.5616 70.2525 23.3986 71.1936 27.8291C72.1348 32.2597 69.3172 36.6175 64.8898 37.579C60.4331 38.5469 56.0388 35.7075 55.0915 31.2476C54.1441 26.7877 57.0049 22.408 61.4704 21.4817Z"/><path fill="#37393B" d="M405.622 26.2078C408.016 26.2834 408.268 26.8462 408.22 29.2605C408.195 30.5071 408.172 31.7804 408.171 33.03C409.982 32.9887 413.663 32.5545 414.785 34.2274L414.629 34.7385C412.716 36.1196 410.596 35.7534 408.2 35.7133C408.171 38.0934 408.133 40.1003 407.925 42.468C404.426 42.6232 405.562 40.3461 405.425 37.8037C405.389 37.1369 405.441 36.4031 405.448 35.728C403.658 35.7557 399.871 36.1615 398.792 34.4763L398.949 33.9594C400.841 32.5944 403.104 32.9754 405.472 33.0249C405.453 30.6143 405.449 28.6077 405.622 26.2078Z"/><path fill="#020202" d="M577.989 37.3089C577.471 37.8846 577.399 38.0626 576.689 38.2589C574.674 37.5846 570.821 33.3812 571.102 31.2058C572.641 31.413 575.229 34.907 576.67 36.0626C577.076 36.4007 577.727 36.8817 577.989 37.3089Z"/><path fill="#37393B" d="M576.67 36.0626C577.926 34.6362 580.21 31.7297 582.061 31.3059C582.5 32.9268 579.07 36.1773 577.989 37.3089C577.727 36.8817 577.076 36.4007 576.67 36.0626Z"/><path fill="#B6B6B8" d="M0 115.406L600 115.372L600 116.019L0 116.036L0 115.406Z"/><path fill="#798E99" d="M531.712 71.3342C539.968 70.7537 547.139 76.9567 547.751 85.2079C548.363 93.4592 542.186 100.652 533.935 101.295C525.639 101.942 518.397 95.7256 517.782 87.4297C517.166 79.1339 523.412 71.9177 531.712 71.3342Z"/><path fill="#FDFCFE" d="M528.823 80.6498C530.714 80.5875 534.681 80.2759 536.267 81.2708C535.184 82.131 532.02 81.9654 530.566 81.9775L530.4 85.5011C531.858 85.4953 534.107 85.3171 535.288 86.0701L535.067 86.4772C533.706 87.1048 532.052 87.002 530.53 87.0316L530.485 90.9603C531.773 90.9067 535.546 90.5848 536.432 91.4871C534.722 92.6078 530.913 92.264 528.875 92.1922C528.712 88.6392 528.819 84.2666 528.823 80.6498Z"/><path fill="#616064" d="M479.368 76.6714C484.892 77.095 492.819 76.7874 498.511 76.7207L498.518 95.8398C492.123 95.786 485.727 95.7845 479.332 95.8354C479.417 89.4477 479.429 83.0593 479.368 76.6714Z"/><path fill="#FDFCFE" d="M481.977 79.4284C485.243 79.3276 488.399 79.3773 491.661 79.4221C491.744 83.9427 491.675 88.667 491.674 93.2036L481.994 93.1527L481.977 79.4284Z"/><path fill="#616064" d="M149.747 25.0202C153.106 24.1604 156.668 25.1752 159.07 27.6761C161.472 30.177 162.34 33.7767 161.344 37.0973C160.348 40.4178 157.64 42.945 154.258 43.7115C149.129 44.8739 144.017 41.7014 142.783 36.5899C141.549 31.4785 144.651 26.3243 149.747 25.0202Z"/><path fill="#FDFCFE" d="M151.767 26.9832C152.787 27.0359 152.726 26.864 153.409 27.4393C152.912 29.3721 149.706 30.1465 150.374 32.4171C151.425 33.0582 153.048 32.5601 153.291 32.8084C156.036 35.6173 155.543 35.8096 159.79 34.2726C158.627 38.3154 157.532 40.3202 153.369 41.537C151.981 41.6671 149.193 41.7338 149.616 39.5718C150.281 39.082 151.633 39.0028 152.513 38.8796C152.794 38.6201 152.925 38.6452 152.939 38.3146C153.137 33.5349 147.363 34.2793 144.456 34.2659C145.767 29.931 147.205 27.8939 151.767 26.9832Z"/><path fill="#020202" d="M169.353 78.0455C172.456 77.2305 175.757 78.1455 177.997 80.4413C180.237 82.737 181.069 86.0591 180.177 89.1395C179.285 92.22 176.806 94.5833 173.685 95.3274C168.936 96.4598 164.16 93.5616 162.974 88.8274C161.787 84.0932 164.631 79.2857 169.353 78.0455Z"/><path fill="#FDFCFE" d="M170.77 79.2189C174.876 78.7512 178.581 81.7066 179.036 85.8127C179.492 89.9187 176.524 93.6135 172.415 94.056C168.325 94.4967 164.648 91.5456 164.195 87.4573C163.742 83.369 166.682 79.6846 170.77 79.2189Z"/><path fill="#020202" d="M171.006 85.4765C171.665 85.6125 171.711 85.5996 172.168 86.0596C172.514 87.5403 172.652 90.1297 171.86 91.4592L171.074 90.8408C170.767 89.2358 170.94 87.1464 171.006 85.4765Z"/><path fill="#FDFCFE" d="M434.223 75.8789C435.063 78.229 435.917 80.574 436.786 82.9137C439.552 83.2621 441.78 83.4003 444.573 83.5298L438.664 88.5957C439.153 90.6336 439.859 93.9719 440.528 95.8486C438.663 94.5938 435.867 92.8321 434.158 91.4989C432.722 92.5201 430.042 94.5513 428.546 95.1531L428.205 94.9836L428.486 93.9635C428.776 92.0051 429.199 90.5942 429.919 88.7672C429.072 87.819 424.969 84.5215 423.776 83.524C426.306 83.4306 428.936 83.1982 431.47 83.0096L433.128 79.0173L434.223 75.8789Z"/><defs><linearGradient id="gradient_0" gradientUnits="userSpaceOnUse" x1="427.04193" y1="92.803452" x2="441.94815" y2="82.21019"><stop offset="0" stop-color="#3A3738"/><stop offset="1" stop-color="#68686B"/></linearGradient></defs><path fill="url(#gradient_0)" d="M434.223 75.8789C435.063 78.229 435.917 80.574 436.786 82.9137C439.552 83.2621 441.78 83.4003 444.573 83.5298L438.664 88.5957C439.153 90.6336 439.859 93.9719 440.528 95.8486C438.663 94.5938 435.867 92.8321 434.158 91.4989C432.722 92.5201 430.042 94.5513 428.546 95.1531L428.205 94.9836L428.486 93.9635C429.266 93.3975 430.018 93.3499 430.56 92.445L434.249 89.6406C435.265 90.6067 436.704 91.4669 437.898 92.2429C437.5 90.7003 437.089 89.1611 436.665 87.6255L440.043 84.854L435.664 84.5084C435.286 83.1357 435.056 81.492 433.733 80.842C433.664 79.5739 433.829 80.0538 433.128 79.0173L434.223 75.8789Z"/><defs><linearGradient id="gradient_1" gradientUnits="userSpaceOnUse" x1="433.19641" y1="83.636993" x2="424.92938" y2="82.810638"><stop offset="0" stop-color="#4F5152"/><stop offset="1" stop-color="#6B676A"/></linearGradient></defs><path fill="url(#gradient_1)" d="M433.128 79.0173C433.829 80.0538 433.664 79.5739 433.733 80.842C433.343 82.2731 433.062 83.182 432.517 84.5586C431.206 84.6468 429.726 84.7105 428.434 84.8443C429.263 85.6226 430.289 86.6776 431.262 87.2016C430.684 87.7935 430.389 88.066 429.919 88.7672C429.072 87.819 424.969 84.5215 423.776 83.524C426.306 83.4306 428.936 83.1982 431.47 83.0096L433.128 79.0173Z"/><path fill="#37393B" d="M429.919 88.7672C430.389 88.066 430.684 87.7935 431.262 87.2016C431.705 88.962 430.588 90.555 430.56 92.445C430.018 93.3499 429.266 93.3975 428.486 93.9635C428.776 92.0051 429.199 90.5942 429.919 88.7672Z"/><path fill="#020202" d="M297.948 79.407C305.152 79.2649 305.241 90.7803 299.662 93.2053C292.526 93.0411 292.592 81.9637 297.948 79.407Z"/><path fill="#FDFCFE" d="M298.05 80.4235C303.127 80.4221 303.416 89.2241 299.622 92.0725C294.319 92.1731 294.46 83.5585 298.05 80.4235Z"/><path fill="#020202" d="M321.887 79.4302C329.419 79.4307 329.266 90.1784 324.067 93.1834C316.689 93.275 316.763 82.4638 321.887 79.4302Z"/><path fill="#FDFCFE" d="M322.075 80.4387C327.573 80.5717 327.457 89.5589 323.547 92.1901C318.256 91.6901 318.806 83.4273 322.075 80.4387Z"/><path fill="#020202" d="M310.195 79.3936C317.267 79.589 317.39 90.5367 311.769 93.2568C305.259 92.7416 305.095 84.5177 308.462 80.3913C308.771 80.013 309.722 79.5985 310.195 79.3936Z"/><path fill="#FDFCFE" d="M310.062 80.4603C315.706 80.5722 315.339 89.191 311.832 92.1401C306.291 92.0103 306.813 83.4358 310.062 80.4603Z"/><path fill="#020202" d="M202.066 82.9121C208.642 81.9472 210.827 89.3835 205.284 93.1195C198.071 93.6496 196.849 86.259 202.066 82.9121Z"/><path fill="#FDFCFE" d="M202.516 84.3282C207.213 84.0711 207.879 89.0546 204.797 91.6064C199.932 92.0737 199.607 87.2066 202.516 84.3282Z"/><path fill="#020202" d="M250.757 82.9342C257.782 82.1804 259.235 89.3139 254.315 92.9924C247.483 94.3626 245.269 86.6326 250.757 82.9342Z"/><path fill="#FDFCFE" d="M251.374 84.295C251.635 84.2897 251.895 84.2913 252.155 84.2998C256.049 84.4439 256.322 89.0594 253.637 91.5653C248.626 92.0821 248.372 87.0911 251.374 84.295Z"/><defs><linearGradient id="gradient_2" gradientUnits="userSpaceOnUse" x1="36.906544" y1="85.376373" x2="20.805962" y2="86.207916"><stop offset="0" stop-color="#373633"/><stop offset="1" stop-color="#6B6A6E"/></linearGradient></defs><path fill="url(#gradient_2)" d="M28.517 77.5358C28.8852 77.5985 29.0245 77.6985 29.3642 77.8565L29.3754 78.5353C28.4532 80.2068 24.975 83.5036 23.5394 84.9538C26.3173 85.1367 36.1991 84.8043 37.6938 85.9372C37.0734 87.4801 25.8339 86.0375 24.1401 87.3343L24.4996 87.9236C25.8829 89.2622 28.8109 91.9035 29.5073 93.6192L29.1908 94.2577C27.2671 94.3853 21.161 87.5099 19.6664 85.9718C22.4007 82.9418 25.3592 80.1218 28.517 77.5358Z"/><path fill="#020202" d="M223.615 82.9726C228.658 82.3833 229.427 84.886 229.571 89.6026C229.605 90.6977 229.519 92.4476 228.699 93.2454C227.978 93.203 227.881 92.9422 227.227 92.4275C224.758 92.0986 224.803 94.6792 221.376 91.8823C219.937 85.5277 226.94 88.3892 227.662 85.7972L227.093 84.9112C224.909 83.8296 223.876 85.3513 221.692 85.3811L221.648 84.8903C222.154 83.797 222.593 83.6135 223.615 82.9726Z"/><path fill="#FDFCFE" d="M224.169 88.5537C225.651 88.4075 226.356 88.1126 227.478 89.1505L227.468 89.8235C226.926 90.845 226.565 91.0095 225.615 91.6609C224.132 91.8546 223.077 91.6316 222.709 90.1014C222.984 89.2118 223.399 89.0482 224.169 88.5537Z"/><path fill="#020202" d="M121.281 80.9978C115.893 77.4319 109.894 79.4548 109.31 86.5514C109.01 90.1957 113.719 94.0278 117.342 93.5227C120.599 93.0685 121.614 91.1509 123.662 88.7283L124.375 88.6827L124.571 89.0097C124.175 90.9287 121.174 93.9038 119.281 94.4793C114.489 95.9367 109.331 93.1672 108.112 88.2763C107.597 86.1901 107.935 83.985 109.05 82.1483C110.295 80.084 112.315 78.6036 114.658 78.0376C117.711 77.3172 119.924 78.1957 122.446 79.7932C122.06 80.6633 122.247 80.3582 121.281 80.9978Z"/><path fill="#020202" d="M187.6 31.0186C193.018 31.1993 193.911 38.1697 188.546 39.8447C182.985 39.1586 182.665 32.7512 187.6 31.0186Z"/><path fill="#FDFCFE" d="M187.175 32.1693L187.305 32.1753L187.613 32.1861C191.481 32.3453 191.686 36.3962 189.056 38.64C184.682 38.4482 184.488 34.4179 187.175 32.1693Z"/><path fill="#020202" d="M384.653 82.9274C385.686 82.9712 386.825 82.907 387.708 83.3896L387.809 83.9073C386.794 84.565 385.897 83.6701 384.791 84.5308C384.488 85.521 384.578 93.227 384.577 94.7832C388.335 94.8731 392.367 94.796 396.148 94.7842C396.105 92.4397 396.353 86.727 395.998 84.8162C395.176 84.1519 394.354 84.215 393.173 84.0199L392.897 83.6309L393.263 82.9726C394.855 83.0111 396.045 82.8051 397.122 84.0463C397.721 86.2213 397.212 92.055 397.276 94.4443C397.348 97.1855 385.641 96.0398 383.595 95.6602C383.236 92.2773 383.189 88.2802 383.484 84.8597C383.574 83.8127 383.925 83.5584 384.653 82.9274Z"/><path fill="#020202" d="M237.127 78.5875C237.846 78.6833 237.889 78.6719 238.478 79.0673C239.012 80.4988 238.745 82.4238 238.703 84.0669C246.768 79.2111 246.391 91.0003 244.535 92.9216L244.102 92.5003C243.435 90.7847 243.67 88.7839 243.732 86.9131C243.395 84.7535 242.901 84.3274 240.651 84.2929C237.225 85.8855 239.562 91.5542 238.438 93.0833C237.565 93.1626 237.887 93.2579 237.219 92.7534C236.828 91.7554 237.087 80.4964 237.127 78.5875Z"/><path fill="#020202" d="M349.802 29.1301C351.591 29.5111 353.402 31.7864 354.717 33.1609C355.872 31.97 357.807 29.5235 359.541 29.7427C359.539 31.4636 357.126 33.2558 355.906 34.365C356.992 35.4055 359.104 37.0582 359.837 38.3666C360.034 38.7178 359.711 39.0677 359.462 39.5546C357.837 39.2095 356.048 36.7531 354.856 35.4017C353.719 36.6284 351.912 38.96 350.192 38.9314C349.991 37.389 352.615 35.3038 353.685 34.2884C352.048 32.8371 349.736 31.3731 349.802 29.1301Z"/><path fill="#020202" d="M211.851 31.0392C213.993 30.9955 215.219 31.4156 215.878 33.6361C216.429 35.4897 216.693 37.6671 215.776 39.4438C214.104 40.0777 210.524 39.8587 209.225 38.2951C209.04 33.671 213.282 35.7151 214.715 33.6246C213.984 31.8138 211.535 32.6343 209.926 32.9213L209.683 32.722C210.277 31.7294 210.814 31.5594 211.851 31.0392Z"/><path fill="#FDFCFE" d="M211.851 35.8356C213.228 35.6766 213.633 35.5371 214.61 36.2502L214.695 36.9502C214.159 37.9628 213.98 38.0499 213.038 38.6619C212.434 38.6469 211.948 38.5358 211.355 38.4259C210.45 37.703 210.641 38.0544 210.416 37.1143C210.757 36.3283 211.086 36.2522 211.851 35.8356Z"/><path fill="#020202" d="M261.563 82.9467C263.306 82.7233 264.948 82.8385 266.352 84.0209C266.74 84.952 266.728 84.5826 266.511 85.4494C265.035 85.677 263.083 82.7408 261.055 85.3098C261.211 87.3875 265.147 86.9582 267.12 89.612C267.524 91.6328 265.949 92.3878 264.278 93.1411C264.035 93.1552 263.793 93.1651 263.55 93.1709C261.837 93.2098 259.333 92.7508 259.345 90.6554C261.088 90.1967 262.987 92.9094 265.25 90.7952C265.115 88.9279 261.58 88.8528 259.617 86.6518C258.97 84.6136 259.953 83.966 261.563 82.9467Z"/><path fill="#020202" d="M285.298 79.6797C287.13 79.5289 289.86 79.4617 290.842 81.3302C291.117 83.271 290.218 84.3219 289.161 85.9163C293.632 90.6839 291.71 93.5832 285.052 92.6324C284.166 92.5058 282.81 91.0291 282.407 90.1153L282.645 89.694C283.945 90.06 284.106 90.5946 285.095 91.7177C287.42 92.0704 288.83 91.9115 290.108 89.7494C290.471 86.3093 285.677 86.6114 283.262 86.0839C285.509 85.432 289.299 85.906 289.73 82.9651C289.508 81.8484 289.5 81.5836 288.776 80.6863C285.951 79.4511 284.395 82.9479 282.858 83.0811L282.674 82.6726C283.103 81.0552 283.96 80.5455 285.298 79.6797Z"/><path fill="#020202" d="M213.472 82.9024C213.651 82.8849 213.83 82.8694 214.009 82.8559C216.016 82.7057 218.973 83.4213 219.029 85.7971L219.055 85.8148C217.186 85.2042 214.7 84.0068 212.915 85.1416C211.271 87.1179 211.897 91.7909 216.08 91.6776C216.346 91.4384 216.616 91.2031 216.89 90.9717C217.743 90.2576 217.877 90.1346 218.798 90.2121L218.931 90.7115C215.682 97.9763 205.14 88.6364 213.472 82.9024Z"/><path fill="#020202" d="M270.554 80.0234L271.466 80.2741C272.199 81.1145 271.966 80.9421 271.967 82.3553C272.763 83.3495 272.799 82.5103 274.334 83.2445L274.461 83.7627C273.835 84.6327 273.634 84.0462 272.211 84.5171C271.751 86.2338 271.983 87.8868 272.051 89.6138C272.155 92.2821 273.617 90.7225 274.71 92.7414C274.191 93.03 273.101 93.2263 272.451 93.1302C269.06 92.6287 270.889 86.9557 270.291 84.7293C270.322 84.8427 268.765 84.0362 268.45 83.6382C269.076 82.8844 268.746 83.1177 269.974 82.9062C270.555 82.187 270.462 81.0809 270.554 80.0234Z"/><path fill="#616064" d="M125.952 77.4353C126.095 80.0626 126.112 82.275 126.082 84.9092L118.529 84.881C119.548 84.0256 120.843 83.0968 121.428 81.9375C121.401 81.5018 121.434 81.4052 121.281 80.9978C122.247 80.3582 122.06 80.6633 122.446 79.7932C124.004 80.2698 124.931 78.601 125.952 77.4353Z"/><path fill="#020202" d="M194.285 30.8579C197.057 32.411 197.368 30.3057 199.89 31.5422C201.933 32.544 201.574 37.9687 200.566 39.536L200.237 39.3957C199.769 37.689 199.885 35.4641 199.883 33.6571C199.233 32.2203 197.899 31.6869 196.489 32.3899C194.607 34.6979 196.285 38.5153 194.951 39.8024L194.511 39.754C193.995 38.773 194.271 32.3792 194.285 30.8579Z"/><path fill="#020202" d="M194.914 78.5804L195.999 78.8256C197.093 80.0563 196.501 90.9674 196.476 93.3355C195.649 93.2353 195.438 93.2858 194.857 92.7581C194.57 89.4 194.715 82.0522 194.914 78.5804Z"/><path fill="#020202" d="M232.434 78.5764L233.496 78.8293C234.448 79.9588 233.991 91.0013 233.961 93.34C233.545 93.2672 233.036 93.1345 232.615 93.0365C231.881 92.0079 232.352 80.6316 232.434 78.5764Z"/><defs><linearGradient id="gradient_3" gradientUnits="userSpaceOnUse" x1="72.049385" y1="92.70517" x2="80.62104" y2="85.53022"><stop offset="0" stop-color="#9C999A"/><stop offset="1" stop-color="#BFBFBF"/></linearGradient></defs><path fill="url(#gradient_3)" d="M79.8219 84.003L82.017 85.966C79.4398 88.422 74.0379 93.7107 71.1688 95.5023C72.6318 92.6237 77.9139 87.846 77.8909 86.8595L77.9177 85.1625L78.4241 84.5675C78.946 84.5096 79.337 84.2475 79.8219 84.003Z"/><path fill="#020202" d="M177.525 31.0537C179.437 31.0148 181.391 31.1957 182.345 33.1741C180.344 32.9872 178.375 31.9691 176.628 33.126C175.688 34.4466 176.355 36.897 177.29 38.0427C178.295 38.6668 178.55 38.6247 179.718 38.6387C180.376 38.0514 180.886 37.4966 181.745 37.2751L182.132 37.5433C181.804 39.0288 179.174 40.2595 178.021 39.8233C173.754 38.2078 174.607 33.2876 177.525 31.0537Z"/><path fill="#37393B" d="M390.317 76.9922C391.424 77.548 392.984 79.2715 393.502 80.5738L393.309 80.8597C392.313 80.6209 391.701 79.7959 390.946 79.029C390.789 82.5458 391.049 85.9154 390.774 89.5161L390.074 89.1995C389.382 87.7519 389.77 81.2755 389.832 79.3247C388.101 80.8019 387.957 81.0839 385.833 82.1839C387.046 80.2476 388.728 78.6389 390.317 76.9922Z"/><path fill="#020202" d="M220.883 31.0574C222.982 31.0175 224.178 30.9908 225.344 32.9731C224.25 33.6666 221.405 31.0724 219.611 33.6876C219.055 36.5017 219.929 38.179 222.696 38.7677C223.582 38.0841 224.222 37.3068 225.327 37.6326C225.178 39.0197 222.575 40.0886 221.515 39.7853C217.07 38.5124 217.792 33.2572 220.883 31.0574Z"/><path fill="#020202" d="M204.564 28.528C205.058 28.6597 205.141 28.8035 205.496 29.1631C205.486 32.2006 206.55 30.321 207.724 31.6318C207.301 32.8562 206.673 31.6013 205.66 32.7504C205.58 33.585 205.383 37.6062 206.058 38.1401C206.753 38.6898 207.098 38.0844 207.877 39.5556C206.884 39.7905 206.103 39.7769 205.205 39.3016C203.638 37.6332 204.616 34.8412 204.263 32.7299C204.189 32.2935 203.451 32.1504 202.942 31.9565L202.929 31.4602C203.451 31.125 203.503 31.1106 204.109 30.9301L204.261 30.8861C204.353 30.099 204.454 29.3129 204.564 28.528Z"/><path fill="#020202" d="M228.765 28.5026C229.147 28.6688 229.342 28.8961 229.645 29.1798C229.679 31.18 229.679 30.8776 231.476 31.2887L231.748 31.7844L231.468 32.1745L230.047 32.3253L229.787 32.7532C229.695 33.9332 229.515 37.1422 230.192 38.1063C231.068 38.4944 231.47 38.6402 232.072 39.4437C231.128 39.7959 230.223 39.8085 229.318 39.3597C227.742 37.6978 229.032 34.8211 228.347 32.4424C227.807 32.25 227.581 32.1633 227.075 31.8964L227.202 31.3386L228.301 30.9052C228.577 30.0927 228.645 29.3497 228.765 28.5026Z"/><path fill="#B6B6B8" d="M66.4459 85.4715C68.1774 85.1732 75.7277 85.193 77.9177 85.1625L77.8909 86.8595C73.8111 86.3983 67.7023 87.0438 63.8565 86.388L64.0034 85.797C64.9138 85.2551 65.2052 85.4637 66.4459 85.4715Z"/><path fill="#979496" d="M63.8565 86.388L64.0034 85.797C64.9138 85.2551 65.2052 85.4637 66.4459 85.4715C68.813 85.585 72.7337 85.5475 74.8323 85.8501C73.1028 86.4509 66.048 86.3773 63.8565 86.388Z"/><path fill="#37393B" d="M575.684 91.4717C576.3 91.1475 577.044 91.1881 577.621 91.5775C578.198 91.9668 578.514 92.6419 578.444 93.3342C578.373 94.0266 577.928 94.6241 577.284 94.8892C576.351 95.2736 575.281 94.8573 574.853 93.9437C574.425 93.0301 574.791 91.9417 575.684 91.4717Z"/><path fill="#37393B" d="M575.888 77.7331C576.519 77.484 577.234 77.5963 577.758 78.0265C578.281 78.4568 578.53 79.1371 578.407 79.8033C578.285 80.4696 577.81 81.0169 577.168 81.2327C576.21 81.5545 575.17 81.0548 574.823 80.1059C574.476 79.157 574.949 78.1046 575.888 77.7331Z"/><path fill="#979496" d="M78.4241 84.5675C77.3988 83.6084 76.3841 82.6381 75.3801 81.6568C74.66 80.9452 72.7157 79.0867 72.7097 78.1616L72.2979 77.9843L72.4317 78.2792L72.3436 77.9502C73.8971 78.5031 78.1904 82.6415 79.8219 84.003C79.337 84.2475 78.946 84.5096 78.4241 84.5675Z"/><path fill="#020202" d="M576.195 84.5249C577.165 84.3187 578.121 84.9308 578.34 85.8983C578.558 86.8658 577.958 87.8291 576.993 88.0597C576.358 88.2114 575.69 88.0099 575.245 87.5322C574.8 87.0544 574.646 86.3743 574.843 85.7518C575.04 85.1293 575.556 84.6606 576.195 84.5249Z"/><path fill="#020202" d="M169.322 191.902C169.848 191.861 170.373 191.827 170.9 191.8C177.689 191.463 195.854 189.487 195.578 199.508C195.334 208.372 187.189 208.29 180.72 208.431L180.727 215.559C180.7 216.767 180.968 218.013 181.179 219.209C182.427 219.662 183.841 219.955 184.397 221.085C183.403 221.962 170.269 222.18 169.414 220.973C170.204 219.727 172.163 219.946 172.821 218.69C173.621 217.164 173.564 196.79 172.852 194.996C172.392 193.837 171.502 193.813 170.495 193.349C169.68 192.974 169.621 192.708 169.322 191.902Z"/><path fill="#FDFCFE" d="M181.34 193.612C182.807 193.614 184.264 193.566 185.448 194.559C188.706 197.293 188.242 202.527 185.716 205.543C184.02 206.377 182.574 206.456 180.746 206.541C180.706 203.886 180.258 195.405 181.34 193.612Z"/><path fill="#020202" d="M226.694 200.73C227.271 200.693 238.152 201.562 238.7 201.698C239.066 202.57 238.913 203.073 238.778 203.993C238.14 204.57 237.712 204.319 236.589 204.267C235.706 205.241 237.125 208.034 237.12 209.817C237.1 216.381 225.013 213.349 224.754 217.336C226.347 218.997 237.239 217.156 238.918 221.81C239.606 223.718 238.631 226.383 237.574 227.846C231.526 233.485 211.527 230.423 221.08 223.361C221.253 221.082 214.828 219.372 223.749 214.47L223.244 214.14C221.181 212.789 219.662 211.481 219.167 208.872C218.841 207.212 219.205 205.491 220.174 204.104C221.836 201.769 224.066 201.186 226.694 200.73Z"/><path fill="#FDFCFE" d="M224.059 224.05C226.584 224.009 234.656 223.12 235.079 226.212C234.736 227.206 234.484 227.372 233.734 228.057C233.567 228.117 233.398 228.174 233.229 228.227C230.115 229.225 220.667 230.126 224.059 224.05Z"/><path fill="#FDFCFE" d="M227.664 202.295C232.195 203.563 231.637 210.829 228.824 213.385C224.467 213.055 225.002 206.782 226.116 203.942C226.336 203.382 227.205 202.678 227.664 202.295Z"/><path fill="#0719AA" d="M85.0252 131.477C87.0901 135.234 90.1097 144.759 92.9484 146.868C94.4066 148.023 95.8396 148.032 97.5338 147.309L99.3636 147.26C103.222 145.648 103.521 144.095 103.606 140.217L103.686 140.393C104.028 141.162 104.072 141.353 104.215 142.177L104.673 141.815C105.333 138.712 107.148 136.297 110.666 137.105C112.014 137.414 113.186 138.243 113.924 139.413C115.344 141.685 114.596 144.118 112.986 146.037L111.346 147.2C112.785 148.293 122.032 148.544 122.819 147.574C120.921 147.202 120.155 147.811 118.613 147.485C119.875 147.141 120.464 146.951 121.657 146.429C121.158 146.437 126.061 146.847 125.371 146.697L125.34 147.316C128.134 148.774 129.524 147.773 132.075 148.308C132.227 149.432 132.435 149.541 132.007 150.429C122.28 150.867 110.55 150.44 100.659 150.53C95.1935 150.58 83.2402 150.846 78.1836 150.424C77.8457 149.783 77.8464 149.747 77.7593 149.019C78.1464 148.268 78.053 147.923 77.9757 147.088C77.6899 146.938 77.8236 147.038 77.6691 146.619C80.028 145.025 82.0104 138.917 83.1905 136.015C83.9293 134.377 84.4535 133.198 85.0252 131.477Z"/><path fill="#FDFCFE" d="M85.0252 131.477C87.0901 135.234 90.1097 144.759 92.9484 146.868C91.4497 147.135 89.0056 147.227 87.5265 146.827L87.9512 147.476C87.3448 148.078 87.4416 147.806 87.3762 148.528L87.0822 148.468C85.1224 148.002 82.643 148.958 81.7861 147.047C80.6006 147.058 79.1337 147.027 77.9757 147.088C77.6899 146.938 77.8236 147.038 77.6691 146.619C80.028 145.025 82.0104 138.917 83.1905 136.015C83.9293 134.377 84.4535 133.198 85.0252 131.477Z"/><path fill="#0719AA" d="M85.0252 131.477C87.0901 135.234 90.1097 144.759 92.9484 146.868C91.4497 147.135 89.0056 147.227 87.5265 146.827C87.7467 146.477 87.8576 146.301 88.1256 145.982L88.3292 145.741C88.57 144.578 87.8943 143.507 87.3741 142.413L86.644 141.896L86.5636 141.182C86.39 139.861 85.5036 137.224 84.5028 136.312L83.1905 136.015C83.9293 134.377 84.4535 133.198 85.0252 131.477Z"/><path fill="#19258D" d="M77.9757 147.088C77.6899 146.938 77.8236 147.038 77.6691 146.619C80.028 145.025 82.0104 138.917 83.1905 136.015L84.5028 136.312C85.5036 137.224 86.39 139.861 86.5636 141.182L86.644 141.896L87.3741 142.413L81.7492 142.449C81.23 143.725 80.791 144.459 81.0635 145.787C81.3896 146.136 81.8986 146.508 81.7861 147.047C80.6006 147.058 79.1337 147.027 77.9757 147.088Z"/><path fill="#FDFCFE" d="M84.5028 136.312C85.5036 137.224 86.39 139.861 86.5636 141.182L82.2673 141.23C83.0007 139.535 83.6903 137.973 84.5028 136.312Z"/><path fill="#FDFCFE" d="M104.673 141.815C105.333 138.712 107.148 136.297 110.666 137.105C112.014 137.414 113.186 138.243 113.924 139.413C115.344 141.685 114.596 144.118 112.986 146.037L111.346 147.2C110.636 147.273 109.666 147.405 108.975 147.41L108.506 147.414C105.669 146.08 105.036 144.884 104.673 141.815Z"/><path fill="#0719AA" d="M104.673 141.815C105.333 138.712 107.148 136.297 110.666 137.105C112.014 137.414 113.186 138.243 113.924 139.413C115.344 141.685 114.596 144.118 112.986 146.037L112.161 145.221C114.211 132.709 101.525 139.442 109.217 146.704L108.975 147.41L108.506 147.414C105.669 146.08 105.036 144.884 104.673 141.815Z"/><path fill="#19258D" d="M109.217 146.704C110.811 146.468 111.086 146.289 112.161 145.221L112.986 146.037L111.346 147.2C110.636 147.273 109.666 147.405 108.975 147.41L109.217 146.704Z"/><path fill="#FDFCFE" d="M103.606 140.217L103.686 140.393C104.028 141.162 104.072 141.353 104.215 142.177L104.673 141.815C105.036 144.884 105.669 146.08 108.506 147.414C107.391 147.976 106.918 148.148 105.724 148.526C104.459 148.603 103.089 148.53 101.814 148.491C101.122 147.993 100.152 147.597 99.3636 147.26C103.222 145.648 103.521 144.095 103.606 140.217Z"/><path fill="#DFE0E3" d="M121.657 146.429C121.158 146.437 126.061 146.847 125.371 146.697L125.34 147.316C128.134 148.774 129.524 147.773 132.075 148.308C130.519 148.946 108.673 148.583 105.724 148.526C106.918 148.148 107.391 147.976 108.506 147.414L108.975 147.41C109.666 147.405 110.636 147.273 111.346 147.2C112.785 148.293 122.032 148.544 122.819 147.574C120.921 147.202 120.155 147.811 118.613 147.485C119.875 147.141 120.464 146.951 121.657 146.429Z"/><path fill="#DFE0E3" d="M92.9484 146.868C94.4066 148.023 95.8396 148.032 97.5338 147.309L99.3636 147.26C100.152 147.597 101.122 147.993 101.814 148.491C99.1372 148.758 90.0524 148.708 87.3762 148.528C87.4416 147.806 87.3448 148.078 87.9512 147.476L87.5265 146.827C89.0056 147.227 91.4497 147.135 92.9484 146.868Z"/><path fill="#DFE0E3" d="M77.9757 147.088C79.1337 147.027 80.6006 147.058 81.7861 147.047C82.643 148.958 85.1224 148.002 87.0822 148.468C85.2328 148.544 79.0017 148.507 77.7593 149.019C78.1464 148.268 78.053 147.923 77.9757 147.088Z"/><path fill="#020202" d="M50.1595 200.718C64.7042 199.632 66.7507 218.187 54.3597 222.23C51.8311 222.429 49.9439 222.442 47.6359 221.237C45.2543 219.963 43.4823 217.789 42.7156 215.2C40.7839 208.878 43.5941 202.529 50.1595 200.718Z"/><path fill="#FDFCFE" d="M51.5537 202.348C55.59 202.563 55.5832 207.667 55.5925 210.803C55.6019 213.997 55.8206 218.697 52.8057 220.581C47.4493 220.386 48.9634 209.227 49.4979 205.705C49.7418 204.098 50.3454 203.373 51.5537 202.348Z"/><path fill="#020202" d="M35.7906 193.265C36.5105 192.252 36.9596 191.457 38.0955 191.128L38.5508 191.557C38.6297 193.272 39.0969 200.637 38.3855 201.628C36.762 201.702 34.0202 196.062 31.9558 194.754C20.9131 187.757 18.118 203.411 19.6348 211.178C20.8279 217.287 23.5463 220.801 30.1061 219.676C34.8044 218.373 34.124 216.898 38.0497 214.962C38.3966 214.791 38.889 215.198 39.2224 215.414C39.6647 217.982 32.3871 221.854 30.1522 222.286C8.53705 226.466 3.4957 194.433 24.6407 191.345C29.1568 191.143 31.497 191.783 35.7906 193.265Z"/><path fill="#020202" d="M77.1102 200.701C87.5912 200.101 84.5235 211.514 84.7173 219.263C85.9378 219.977 86.8904 220.66 88.0326 221.476C84.8846 221.754 81.2201 221.735 78.0283 221.73C76.9777 221.728 76.7157 221.693 76.1705 221.08C76.4875 219.954 78.2252 219.397 78.1894 218.718C78.0307 215.704 78.8496 207.313 77.6361 204.98C76.7145 203.208 73.0966 204.289 72.6988 207.581C72.6793 211.491 72.7055 215.402 72.7774 219.311C73.6222 219.811 74.4989 220.166 74.8823 221.006L74.6254 221.452C72.9347 221.834 64.7871 222.416 63.9771 220.902C64.3342 220.003 65.184 219.698 66.0823 219.189C66.362 215.178 66.2906 207.794 66.1081 203.748C65.0795 203.027 64.2123 202.701 63.784 201.699L64.1406 201.316C65.9127 201.028 70.5758 200.809 72.2309 201.68C72.3987 201.768 72.5008 202.681 72.5692 203.002C73.788 203.041 74.7982 201.543 77.1102 200.701Z"/><path fill="#020202" d="M204.578 200.722C216.56 200.285 215.095 206.187 215.007 215.557C214.999 216.42 214.859 217.652 215.184 218.43C216.07 218.817 216.475 218.853 217.403 219.002L217.541 219.414C215.182 223.645 211.605 222.99 208.568 220.178C207.442 219.137 201.152 226.539 197.025 219.097C196.259 211.888 203.1 210.711 208.654 209.136C208.682 205.583 208.499 200.588 203.147 203.091C202.451 204.511 203.979 205.957 203.517 208.383C203.169 208.902 202.897 209.389 202.176 209.417C198.751 209.55 195.498 207.712 198.327 204.092C200.214 201.677 201.69 201.182 204.578 200.722Z"/><path fill="#FDFCFE" d="M207.64 211.432C207.99 211.436 208.05 211.503 208.399 211.625C208.967 213.274 208.896 215.792 208.009 217.342C207.388 218.429 206.276 218.567 205.153 218.827C204.678 218.408 204.288 218.008 203.974 217.448C203.575 216.731 203.48 215.883 203.71 215.095C204.244 213.266 206.099 212.244 207.64 211.432Z"/><path fill="#020202" d="M110.856 200.733C122.653 199.971 121.662 206.284 121.302 215.443C121.119 220.101 122.943 217.892 123.757 219.416C121.583 224.665 117.307 221.765 114.649 220.273C113.395 219.568 107.427 226.09 103.39 219.241C102.972 211.73 109.054 210.765 115.15 209.119C115.128 207.802 115.201 203.841 113.696 203.029C112.896 202.597 110.706 202.07 110.011 202.836C108.845 204.123 110.851 207.052 109.645 208.571C108.646 209.829 105.827 209.395 104.761 208.623C103.142 207.45 104.055 205.089 104.985 203.812C106.504 201.648 108.352 201.13 110.856 200.733Z"/><path fill="#FDFCFE" d="M114.078 211.355C114.326 211.389 114.595 211.543 114.835 211.654C115.348 213.165 115.275 215.737 114.471 217.196C113.834 218.353 113.002 218.489 111.787 218.889C111.158 218.511 110.838 218.224 110.449 217.587C110.014 216.884 109.89 216.033 110.108 215.236C110.66 213.246 112.422 212.244 114.078 211.355Z"/><path fill="#0719AA" d="M177.162 138.14C183.439 133.113 181.941 143.624 182.818 146.121C182.818 146.122 183.688 146.834 183.774 146.904C186.798 149.446 187.303 147.833 190.051 147.804C193.104 147.773 196.161 148.445 199.335 147.94L199.557 147.718C197.161 147.045 193.434 147.649 192.918 147.478C191.574 146.968 190.231 145.525 191.023 144C192.066 141.991 194.02 141.3 196.028 140.576C196.48 139.9 196.347 139.16 196.329 138.304L196.675 138.361L197.499 137.736C199.465 140.157 196.828 145.848 199.529 145.569C199.786 145.778 200.147 145.964 200.209 146.269C200.629 148.337 202.526 148.082 204.08 148.487C207.01 148.634 214.111 147.737 215.93 149.728L215.644 150.223C213.112 151.071 155.93 150.286 148.49 150.45C147.907 150.463 147.612 150.165 147.317 149.716L147.614 149.05C148.617 148.27 161.461 148.599 163.86 148.485C166.237 147.452 172.547 148.551 174.131 147.451L173.683 147.093L173.648 146.739C175.223 145.197 175.172 140.169 173.702 138.25L173.787 137.718C175.068 136.718 176.202 136.915 177.162 138.14Z"/><path fill="#0719AA" d="M177.162 138.14C183.439 133.113 181.941 143.624 182.818 146.121C182.818 146.122 183.688 146.834 183.774 146.904C182.454 147.116 180.135 147.249 178.864 146.816L178.099 146.938C176.636 147.195 175.168 147.116 173.683 147.093L173.648 146.739C175.223 145.197 175.172 140.169 173.702 138.25L173.787 137.718C175.068 136.718 176.202 136.915 177.162 138.14Z"/><path fill="#FDFCFE" d="M177.74 138.53C179.017 138.351 178.743 138.195 179.726 138.707C180.897 140.511 181.015 144.786 179.726 146.373L178.864 146.816L178.099 146.938C175.9 145.402 176.065 140.338 177.74 138.53Z"/><path fill="#19258D" d="M197.499 137.736C199.465 140.157 196.828 145.848 199.529 145.569L199.658 146.334C198.577 147.66 197.226 146.864 196.167 146.027C194.634 146.928 193.933 146.942 192.918 147.478C191.574 146.968 190.231 145.525 191.023 144C192.066 141.991 194.02 141.3 196.028 140.576C196.48 139.9 196.347 139.16 196.329 138.304L196.675 138.361L197.499 137.736Z"/><path fill="#0719AA" d="M197.499 137.736C199.465 140.157 196.828 145.848 199.529 145.569L199.658 146.334C198.577 147.66 197.226 146.864 196.167 146.027L196.246 145.195C196.454 144.125 196.497 142.249 195.971 141.262L196.028 140.576C196.48 139.9 196.347 139.16 196.329 138.304L196.675 138.361L197.499 137.736Z"/><path fill="#DFE0E3" d="M195.971 141.262C196.497 142.249 196.454 144.125 196.246 145.195C195.005 145.747 194.47 146.04 193.272 145.246C192.854 143.051 194.26 142.233 195.971 141.262Z"/><path fill="#DFE0E3" d="M199.529 145.569C199.786 145.778 200.147 145.964 200.209 146.269C200.629 148.337 202.526 148.082 204.08 148.487C194.22 148.784 184.235 148.473 174.363 148.634C170.912 148.69 167.307 148.653 163.86 148.485C166.237 147.452 172.547 148.551 174.131 147.451L173.683 147.093C175.168 147.116 176.636 147.195 178.099 146.938L178.864 146.816C180.135 147.249 182.454 147.116 183.774 146.904C186.798 149.446 187.303 147.833 190.051 147.804C193.104 147.773 196.161 148.445 199.335 147.94L199.557 147.718C197.161 147.045 193.434 147.649 192.918 147.478C193.933 146.942 194.634 146.928 196.167 146.027C197.226 146.864 198.577 147.66 199.658 146.334L199.529 145.569Z"/><path fill="#020202" d="M248.254 200.709C255.692 200.376 257.64 204.157 258.411 210.836C254.65 210.937 250.888 210.958 247.127 210.897C247.203 211.494 247.295 212.088 247.404 212.68C247.697 214.225 248.657 217.567 250.104 218.345C252.799 219.794 256.268 216.191 258.281 215.715L258.293 216.006C258.417 218.667 254.221 221.429 251.981 222.106C249.89 222.746 247.629 222.504 245.721 221.436C238.149 217.264 238.314 203.32 248.254 200.709Z"/><path fill="#FDFCFE" d="M249.37 202.348C252.203 202.609 253.375 206.761 252.072 208.766L251.148 208.882L247.124 208.876L247.15 208.411C247.317 205.549 247.235 204.242 249.37 202.348Z"/><path fill="#020202" d="M133.44 200.731C133.745 200.705 134.051 200.683 134.357 200.666C136.884 200.526 138.953 200.769 140.905 202.502C143.267 204.6 143.342 208.692 139.284 208.533C135.609 208.39 137.515 204.41 136.001 202.723C134.909 202.333 133.781 202.359 133.129 203.48C130.134 208.625 131.085 219.707 139.133 218.717C140.149 218.03 141.421 216.823 142.593 217.324L142.546 217.949C139.972 222.22 133.779 223.816 129.775 221.086C121.867 215.695 123.842 202.992 133.44 200.731Z"/><path fill="#020202" d="M151.853 193.494L152.226 193.634C153.099 194.838 152.813 199.384 152.806 201.189C154.304 201.18 156.506 200.781 156.929 202.545C155.998 203.871 154.295 203.466 152.811 203.39L152.782 205.034C152.743 207.612 152.207 216.309 153.813 218.218C154.723 219.3 156.173 216.532 157.616 216.546L157.952 217.155C157.873 218.581 156.56 219.805 155.602 220.768C153.98 221.94 150.269 223.264 148.636 221.782C144.583 218.105 147.11 209.328 146.349 204.299C145.577 203.201 145.812 203.661 144.285 203.091L144.271 202.333C144.925 201.12 150.584 194.639 151.853 193.494Z"/><path fill="#020202" d="M95.8303 193.425L96.2343 193.571C97.0641 194.634 96.7547 199.526 96.7369 201.19C98.2065 201.184 100.403 200.807 100.928 202.408C99.9278 203.775 98.3512 203.47 96.7485 203.502C96.7115 206.551 95.839 216.899 98.2133 218.655C100.033 218.284 99.951 216.577 101.56 216.562L101.966 217.142C101.903 218.651 100.549 219.926 99.5105 220.901C99.2028 221.074 98.8912 221.241 98.5759 221.401C87.214 227.119 91.2391 209.441 90.3672 204.304C90.2604 203.675 88.8027 203.179 88.2394 202.959C88.2881 201.447 94.3203 195.121 95.8303 193.425Z"/><path fill="#0719AA" d="M25.2036 146.665C25.4532 146.927 25.643 147.202 25.8367 147.506C28.5691 149.022 52.3501 147.073 57.1501 148.502C58.7019 148.537 62.3823 148.288 63.2428 149.057C63.3064 150.04 63.4337 149.734 62.916 150.358C59.9125 150.792 52.9169 150.53 49.5769 150.511L27.246 150.532L14.682 150.527C13.3538 150.527 10.8698 150.766 9.84549 150.162C9.68411 149.46 9.67823 149.418 9.74379 148.706L10.4475 146.789C11.8807 147.207 15.0859 147.18 16.5618 146.854C17.5562 148.247 18.2805 148.625 19.7595 147.477L19.2881 147.076C20.6694 147.077 24.2025 147.298 25.2036 146.665Z"/><path fill="#DFE0E3" d="M25.2036 146.665C25.4532 146.927 25.643 147.202 25.8367 147.506C28.5691 149.022 52.3501 147.073 57.1501 148.502C41.5962 148.957 25.4083 148.501 9.74379 148.706L10.4475 146.789C11.8807 147.207 15.0859 147.18 16.5618 146.854C17.5562 148.247 18.2805 148.625 19.7595 147.477L19.2881 147.076C20.6694 147.077 24.2025 147.298 25.2036 146.665Z"/><path fill="#020202" d="M109.635 271.476C110.285 271.458 115.206 272.291 115.689 272.674L115.685 273.234L114.458 273.539C113.922 274.267 114.369 275.21 114.161 276.167C113.624 278.629 110.329 277.981 108.581 279.313L108.694 279.771C110.963 281.049 117.04 279.027 115.047 284.462C112.893 286.236 110.058 286.981 107.288 286.356C103.649 285.534 108.5 279.28 107.898 278.075C106.2 274.675 105.748 273.39 109.635 271.476Z"/><path fill="#FDFCFE" d="M108.577 282.006C110.501 282.235 113.235 281.846 114.382 283.094C114.145 284.022 114.142 283.802 113.329 284.549C111.612 285.154 108.851 285.615 107.672 283.935C107.834 282.733 107.802 283.065 108.577 282.006Z"/><path fill="#FDFCFE" d="M109.839 272.161C112.381 272.993 113.105 275.883 111.041 277.908C108.087 276.951 108.171 274.303 109.839 272.161Z"/><path fill="#020202" d="M83.5677 267.171C86.7905 267.024 94.175 266.381 95.1533 270.231C96.384 275.074 91.4511 275.102 88.2821 275.876C87.5273 276.696 87.7793 276.667 87.7462 278.109C87.8263 280.151 88.1815 280.127 89.4133 281.75L89.2648 281.86C88.2168 281.857 84.3682 281.985 83.7321 281.555C84.488 280.913 84.6855 280.709 85.3314 279.952C85.8131 277.283 85.6953 273.347 85.4854 270.584C85.3391 268.659 84.9889 268.325 83.5677 267.171Z"/><path fill="#FDFCFE" d="M87.8715 268.195C88.4152 268.242 88.9569 268.309 89.4954 268.397C90.8835 268.626 91.5361 268.872 92.3857 270.067C92.8665 271.705 92.4673 272.381 91.6846 273.829C90.2142 274.375 89.1522 274.789 88.0076 273.651C87.4838 272.348 87.7927 269.71 87.8715 268.195Z"/><path fill="#FDFCFE" d="M10.4475 146.789C10.8533 145.961 11.4515 146.289 11.5496 145.873C12.3226 142.588 11.7911 137.975 11.8088 134.541C11.8131 133.698 11.0157 133.38 10.431 132.97L10.481 132.6C11.4573 132.314 15.4679 132.473 16.7215 132.494C13.3668 134.304 14.5404 135.57 14.2892 139.143C16.4045 139.132 18.5385 139.107 20.6519 139.122L20.5473 140.267C20.9229 142.305 21.0045 143.754 20.404 145.732C19.9381 146.249 19.8665 146.3 19.2863 146.691L19.2881 147.076L19.7595 147.477C18.2805 148.625 17.5562 148.247 16.5618 146.854C15.0859 147.18 11.8807 147.207 10.4475 146.789Z"/><path fill="#0719AA" d="M10.4475 146.789C10.8533 145.961 11.4515 146.289 11.5496 145.873C12.3226 142.588 11.7911 137.975 11.8088 134.541C11.8131 133.698 11.0157 133.38 10.431 132.97L10.481 132.6C11.4573 132.314 15.4679 132.473 16.7215 132.494C13.3668 134.304 14.5404 135.57 14.2892 139.143L14.36 140.336C14.3084 142.257 14.0307 144.169 14.7929 145.874C15.411 146.481 15.7706 146.562 16.5618 146.854C15.0859 147.18 11.8807 147.207 10.4475 146.789Z"/><path fill="#19258D" d="M14.2892 139.143C16.4045 139.132 18.5385 139.107 20.6519 139.122L20.5473 140.267L14.36 140.336L14.2892 139.143Z"/><path fill="#19258D" d="M95.8497 146.884C93.0711 145.539 95.6353 137.397 94.4045 134.17C93.8258 133.778 93.7164 133.759 93.4655 133.142C93.9212 132.644 95.9098 132.221 96.7238 131.989C96.5983 133.885 96.6499 136.132 96.6515 138.064C99.8294 136.268 101.753 136.623 103.47 139.95L103.606 140.217C103.521 144.095 103.222 145.648 99.3636 147.26L97.5338 147.309L95.8497 146.884Z"/><path fill="#FDFCFE" d="M96.9858 139.168C103.168 136.448 103.059 147.79 97.261 146.148C96.1275 145.162 96.7514 141.712 96.4573 139.95L96.9858 139.168Z"/><path fill="#0719AA" d="M95.8497 146.884C93.0711 145.539 95.6353 137.397 94.4045 134.17C93.8258 133.778 93.7164 133.759 93.4655 133.142C93.9212 132.644 95.9098 132.221 96.7238 131.989C96.5983 133.885 96.6499 136.132 96.6515 138.064L96.9858 139.168L96.4573 139.95C96.0985 142.268 96.5161 145.183 95.8497 146.884Z"/><path fill="#020202" d="M28.9124 271.523C29.8352 271.512 30.6748 271.626 31.5389 271.967C32.8208 272.472 33.831 273.493 34.3223 274.78C35.6695 278.309 33.6111 281.117 30.3095 282.313C24.1104 282.065 22.2476 274.168 28.9124 271.523Z"/><path fill="#FDFCFE" d="M28.3394 272.528C32.9857 272.503 33.4898 278.219 30.9656 281.216C26.3008 281.492 26.3934 275.582 28.3394 272.528Z"/><path fill="#FDFCFE" d="M163.4 139.093C165.056 136.851 168.199 136.343 170.477 137.947C171.76 138.851 172.558 140.292 172.644 141.859C172.729 143.426 172.091 144.945 170.914 145.982C169.229 147.466 166.774 147.682 164.857 146.514C163.628 145.765 162.771 144.535 162.494 143.124C162.217 141.712 162.546 140.25 163.4 139.093Z"/><path fill="#0719AA" d="M170.477 137.947C171.76 138.851 172.558 140.292 172.644 141.859C172.729 143.426 172.091 144.945 170.914 145.982L169.911 145.232C170.373 142.683 170.226 141.342 169.231 138.996L170.477 137.947Z"/><path fill="#0719AA" d="M163.4 139.093L164.017 140.164C164.286 139.886 164.556 139.61 164.828 139.335C164.581 142.134 164.71 142.944 165.749 145.593L164.857 146.514C163.628 145.765 162.771 144.535 162.494 143.124C162.217 141.712 162.546 140.25 163.4 139.093Z"/><path fill="#19258D" d="M163.4 139.093C165.056 136.851 168.199 136.343 170.477 137.947L169.231 138.996C168.45 138.406 168.108 138.052 167.115 137.941C166.04 138.117 165.641 138.604 164.828 139.335C164.556 139.61 164.286 139.886 164.017 140.164L163.4 139.093Z"/><path fill="#19258D" d="M165.749 145.593C167.502 146.912 168.433 146.918 169.911 145.232L170.914 145.982C169.229 147.466 166.774 147.682 164.857 146.514L165.749 145.593Z"/><path fill="#FDFCFE" d="M27.0381 138.76C29.1008 136.804 30.1431 136.766 32.8898 137.209C36.2068 139.321 37.0005 142.993 34.2685 145.97C32.119 147.747 30.7511 147.821 28.2348 146.664C25.6346 144.766 25.4886 141.378 27.0381 138.76Z"/><path fill="#0719AA" d="M32.8898 137.209C36.2068 139.321 37.0005 142.993 34.2685 145.97C34.1058 145.516 33.8694 145.389 33.4948 145.084C33.2101 141.564 34.6106 140.018 30.8368 137.772C31.5163 137.712 32.2318 137.428 32.8898 137.209Z"/><path fill="#0719AA" d="M27.0381 138.76C27.8296 139.222 28.1734 139.221 28.2746 140.224C28.1492 142.29 28.332 143.518 29.094 145.465L28.2348 146.664C25.6346 144.766 25.4886 141.378 27.0381 138.76Z"/><path fill="#19258D" d="M33.4948 145.084C33.8694 145.389 34.1058 145.516 34.2685 145.97C32.119 147.747 30.7511 147.821 28.2348 146.664L29.094 145.465C29.884 146.22 30.4332 146.519 31.4885 146.521C32.5784 146.185 32.7366 145.924 33.4948 145.084Z"/><path fill="#19258D" d="M27.0381 138.76C29.1008 136.804 30.1431 136.766 32.8898 137.209C32.2318 137.428 31.5163 137.712 30.8368 137.772C29.1227 138.151 28.8404 138.492 28.2746 140.224C28.1734 139.221 27.8296 139.222 27.0381 138.76Z"/><path fill="#020202" d="M16.9505 266.867C18.6161 266.885 22.0148 266.933 23.1342 267.976C23.6765 269.184 23.4644 271.773 23.4388 273.21C22.5303 271.32 21.0556 268.316 18.7495 268.19C11.8555 267.816 10.167 279.65 18.4869 280.997C20.583 280.595 22.0322 279.315 23.4277 279.23L23.4193 279.595C21.2874 281.886 16.4301 283.354 14.0135 281.524C7.79225 276.814 9.46498 268.705 16.9505 266.867Z"/><path fill="#020202" d="M131.558 267.09C134.925 267.335 140.501 267.203 144.092 267.253C144.135 268.287 144.306 269.942 143.736 270.77C142.672 269.706 140.669 267.38 139.118 268.238C138.584 269.305 138.865 278.979 139.007 280.567C139.84 280.932 140.274 280.923 140.574 281.576C139.502 281.977 135.912 281.787 134.624 281.712L134.475 281.433C135.294 281.013 135.713 280.854 136.342 280.151C136.589 278.668 136.699 269.817 136.24 268.645C135.459 267.922 135.824 268.066 134.878 267.996C132.855 268.745 132.029 270.551 131.123 272.312C131.204 270.617 131.405 268.79 131.558 267.09Z"/><path fill="#020202" d="M99.0945 271.492C105.575 271.2 102.899 275.497 103.552 279.355C103.7 280.228 104.577 279.934 105.171 280.858C104.249 281.867 97.9539 282.069 96.5345 281.248C95.137 274.677 101.601 277.883 101.578 273.611C101.009 272.654 101.323 272.903 100.435 272.507C99.4616 272.7 98.188 274.253 97.2977 275.069L96.8808 274.98C96.6497 274.132 96.5933 273.994 96.8182 273.154C97.5254 272.23 98.0646 272.03 99.0945 271.492Z"/><path fill="#FDFCFE" d="M101.283 276.14C102.845 278.199 101.46 280.096 99.0267 280.574C98.3616 279.533 98.376 279.273 98.6338 278.154C99.3436 277.135 100.203 276.759 101.283 276.14Z"/><path fill="#020202" d="M55.7297 271.521C61.9478 271.084 60.1827 275.495 60.632 279.893C61.0733 280.206 61.4685 280.466 61.9269 280.754L61.7616 281.323C60.7079 281.543 54.7575 281.886 53.7035 281.559C51.4413 276.035 58.0535 276.947 58.4984 273.689C57.9064 272.487 57.6813 272.335 56.4556 272.457C55.4351 273.351 55.7375 273.029 55.3611 274.501C54.6118 275.14 54.951 275.026 54.0894 275.042C53.1203 273.135 54.2627 272.413 55.7297 271.521Z"/><path fill="#FDFCFE" d="M57.9778 276.128C59.9119 277.739 58.2412 279.913 56.219 280.713C54.1299 278.384 56.0739 277.364 57.9778 276.128Z"/><path fill="#020202" d="M38.2035 271.657L38.4902 271.654C38.718 272.096 38.7981 272.388 39.239 272.602C40.9592 271.833 41.8274 271.693 43.6749 272.14C45.8984 274.148 43.3458 277.806 45.5254 281.473L45.6033 281.601L45.2913 281.8C44.2734 281.823 41.7708 282.029 41.0321 281.596L42.3179 280.642C42.7936 279.321 42.6336 276.67 42.6224 275.163C42.5308 274.458 42.4706 274.365 42.1834 273.704C41.3778 273.194 41.2488 273.199 40.289 273.231C37.3461 275.072 40.3395 279.846 39.0409 281.842C38.206 281.865 36.5256 282.039 35.921 281.637C36.7514 279.442 37.402 276.726 36.7762 274.154C36.714 273.898 35.8874 273.4 35.8378 272.519L38.2035 271.657Z"/><path fill="#020202" d="M120.499 271.489C122.648 271.652 124.823 272.528 124.95 274.977C123.704 276.23 120.13 275.894 117.982 275.987C119.386 279.869 121.01 282.091 124.725 278.467L125.156 278.292L125.327 278.751C124.473 281.117 121.49 283.04 119.42 281.875C114.609 279.167 116.092 273.511 120.499 271.489Z"/><path fill="#FDFCFE" d="M119.979 272.573C121.143 272.647 121.959 273.059 122.498 274.127L122.327 274.575L121.536 274.783C120.462 274.929 119.568 275.222 118.733 274.468C118.834 273.595 119.346 273.23 119.979 272.573Z"/><path fill="#020202" d="M147.108 271.51C149.088 271.544 152.438 273.083 151.569 275.287C149.706 276.281 146.919 274.9 145.337 276.658C145.023 278.695 147.18 280.887 149.272 280.187C149.831 279.999 151.012 278.912 151.501 278.488L151.905 278.252C152.315 279.401 150.631 281.188 149.718 281.534C142.661 284.212 140.611 274.542 147.108 271.51Z"/><path fill="#FDFCFE" d="M146.579 272.548C147.624 272.579 148.739 273.168 149.193 274.137L149.001 274.56L148.194 274.805C147.156 274.91 146.256 275.109 145.472 274.556C145.486 273.73 146.036 273.235 146.579 272.548Z"/><path fill="#0719AA" d="M40.559 137.769C42.9237 137.026 43.9597 136.299 45.7658 138.426L46.2747 139.288C45.4108 141.929 46.8719 147.109 46.9081 146.997C45.4022 147.053 44.2921 147.151 42.7974 146.854L42.7979 146.562L43.6403 146.14C44.6264 144.116 44.77 140.482 43.286 138.658C42.194 138.22 42.4391 138.369 41.1384 138.573C39.2984 140.646 40.3327 144.457 41.1828 146.758C40.5236 147.142 38.0283 147.159 37.2529 146.957C37.4351 146.531 38.223 145.316 38.2985 145.088C38.9617 143.089 36.4879 138.34 38.3836 137.197C39.4856 137.195 39.6099 137.217 40.559 137.769Z"/><path fill="#0719AA" d="M20.6519 139.122C20.7125 137.701 20.9307 135.262 20.587 133.973L19.1532 132.828C19.8201 132.112 23.731 132.47 24.8599 132.542C24.6436 133.47 23.4477 133.989 23.4206 134.204C23.0723 136.979 23.1675 142.941 23.3743 145.51C23.9293 146.386 24.0257 146.195 25.2036 146.665C24.2025 147.298 20.6694 147.077 19.2881 147.076L19.2863 146.691C19.8665 146.3 19.9381 146.249 20.404 145.732C21.0045 143.754 20.9229 142.305 20.5473 140.267L20.6519 139.122Z"/><path fill="#020202" d="M153.335 271.618C154.71 271.845 155.768 271.58 157.418 271.939C157.277 272.914 157.247 273.102 157.387 274.072L157.91 274.437L158.554 274.241C159.018 273.53 158.959 273.178 158.985 272.324L158.993 272.016C159.6 271.499 160.948 271.465 161.654 271.827C161.612 272.287 159.449 274.735 158.687 275.89C159.603 277.232 162.167 280.453 162.57 281.527L162.28 281.886L160.781 281.766L159.609 281.889C158.882 281.472 158.938 279.781 157.631 277.77C156.412 279.18 156.255 279.508 155.907 281.343L155.876 281.508C155.087 281.924 154.288 282.14 153.521 281.638C153.651 280.791 156.233 277.716 156.945 276.777C156.086 275.257 153.548 272.335 153.335 271.618Z"/><path fill="#020202" d="M66.6264 271.497C68.5036 271.437 70.5392 271.834 70.8196 273.987C70.3804 274.842 70.6518 274.608 69.8374 274.921C68.7708 274.382 68.8393 274.054 68.1008 272.863C63.596 270.413 62.6494 281.851 69.1266 279.805C70.2086 278.829 71.0826 278.159 72.2433 277.286C71.2974 278.909 70.575 280.409 68.8262 281.329C66.5729 282.516 64.137 281.778 63.0234 279.426C62.3737 278.022 62.3283 276.413 62.8978 274.974C63.656 273.03 64.8372 272.304 66.6264 271.497Z"/><path fill="#0719AA" d="M150.883 133.71L152.618 134.616C149.633 138.73 150.025 142.806 154.015 145.997L153.369 146.411C153.646 146.862 153.715 146.964 154.059 147.364C152.352 146.928 151.46 146.712 150.212 145.452C148.739 143.943 147.939 141.903 147.993 139.796C148.034 137.207 149.061 135.426 150.883 133.71Z"/><path fill="#020202" d="M166.688 269.027C167.893 269.596 166.657 270.08 167.448 271.634L169.049 271.835L169.328 272.235L169.046 272.648C168.228 272.743 167.963 272.703 167.311 273.151C167.029 274.358 166.982 279.005 167.389 280.135C168.825 280.821 168.375 279.844 169.741 280.329L169.669 280.904C168.622 281.625 167.747 282.147 166.428 281.903C164.149 280.172 165.301 276.727 165.036 274.169C164.861 272.486 164.516 273.476 164.065 272.09C164.96 271.087 165.835 270.065 166.688 269.027Z"/><path fill="#020202" d="M74.9151 269.011C76.0817 269.581 75.1415 270.672 75.3047 271.097C75.6933 272.106 76.9162 271.29 77.6079 272.241C77.0128 273.116 76.7139 272.363 75.4593 273.142C75.229 274.606 75.0208 279.565 76.057 280.522C76.6446 280.365 77.1458 280.245 77.7421 280.126L78.1056 280.661C77.2578 281.346 76.3096 282.128 75.2547 282.05C72.3091 281.834 73.6611 275.426 73.2144 273.539C72.859 273.096 72.5818 272.751 72.3828 272.502C72.4616 271.635 74.2399 269.805 74.9151 269.011Z"/><path fill="#0719AA" d="M212.668 134.297L213.084 134.506C213.19 135.161 213.204 135.628 213.233 136.292C213.836 137.09 213.777 136.866 214.98 137.164L215.271 137.668C214.665 138.463 214.174 137.799 213.285 138.536C213.034 139.916 213.028 144.337 213.441 145.547C214.285 145.946 214.268 145.743 215.354 145.442L215.672 145.668L215.551 146.312C214.565 146.879 213.663 147.35 212.531 147.176C209.711 145.344 211.992 141.169 210.48 137.984L210.191 137.377L212.668 134.297Z"/><path fill="#020202" d="M49.2629 269.064L49.639 269.439C49.7484 270.148 49.7413 270.227 49.6675 270.953L49.6476 271.137C50.5538 272.328 50.6259 271.155 51.8639 272.095L51.7417 272.552L50.082 272.896C49.2406 273.924 49.1702 279.277 50.4787 280.359C51.0653 280.317 51.5029 280.215 52.02 280.469L51.9541 281.306C50.3838 281.993 49.7197 282.335 48.2681 281.3C46.8801 278.937 47.9696 276.068 47.6363 273.284L46.6986 272.608L46.6286 272.103L49.2629 269.064Z"/><path fill="#0719AA" d="M187.107 134.349C187.841 135.369 187.311 135.077 187.47 136.355C187.597 137.37 188.504 136.693 189.707 137.46C189.253 138.578 188.612 137.388 187.569 138.534C187.309 139.935 187.321 144.345 187.731 145.585C188.884 146.195 188.659 145.209 189.898 145.536L189.945 146.246C188.615 147.132 187.571 147.674 186.15 146.776C184.85 144.761 185.667 141.196 185.392 138.509C184.844 138.107 184.738 138.067 184.368 137.512C185.238 136.449 186.199 135.385 187.107 134.349Z"/><path fill="#0719AA" d="M129.134 134.304L129.416 134.491C129.818 135.268 129.657 135.211 129.488 136.202C130.017 137.523 130.145 136.482 131.753 137.475C131.281 138.511 130.611 137.563 129.624 138.508C129.461 139.914 129.194 145.069 130.244 145.852C130.933 145.619 131.212 145.537 131.929 145.423L132.303 145.942C131.177 146.747 130.465 147.279 129.04 147.137C125.741 144.935 129.174 140.721 126.552 137.503C127.515 136.406 128.253 135.462 129.134 134.304Z"/><path fill="#FDFCFE" d="M54.0023 141.103C54.9017 137.637 56.3893 137.02 59.8005 136.993C61.7729 138.317 61.9201 138.652 62.643 140.938C60.3985 141.181 58.0671 141.165 55.8024 141.194L55.5545 140.04C54.9393 140.694 54.8462 140.823 54.0023 141.103Z"/><path fill="#0719AA" d="M59.8005 136.993C61.7729 138.317 61.9201 138.652 62.643 140.938C61.684 140.889 61.0383 140.844 60.0789 140.704L60.0727 140.202C59.8205 139.059 59.5855 138.847 58.8651 137.938L59.8005 136.993Z"/><path fill="#19258D" d="M54.0023 141.103C54.9017 137.637 56.3893 137.02 59.8005 136.993L58.8651 137.938C56.8472 138.16 56.6664 138.354 55.5545 140.04C54.9393 140.694 54.8462 140.823 54.0023 141.103Z"/><path fill="#19258D" d="M55.5545 140.04C57.338 140.199 58.2755 140.239 60.0727 140.202L60.0789 140.704C61.0383 140.844 61.684 140.889 62.643 140.938C60.3985 141.181 58.0671 141.165 55.8024 141.194L55.5545 140.04Z"/><path fill="#020202" d="M139.028 131.866C140.006 131.982 139.826 131.822 140.519 132.336C140.828 135.835 140.653 143.833 140.541 147.48L139.23 147.123C138.437 146.009 138.864 133.921 139.028 131.866Z"/><path fill="#020202" d="M70.2237 131.745L71.4852 132.085C72.1432 132.998 71.8524 145.614 71.6918 147.454L70.6033 147.233C69.5455 146.116 70.1701 134.033 70.2237 131.745Z"/><path fill="#0719AA" d="M120.882 145.845C121.485 145.327 122.029 145.041 122.153 144.224C122.458 142.204 123.093 139.8 121.92 138.012L120.941 137.415L121.12 137.067C122.341 136.978 123.182 136.979 124.408 137.013C124.377 139.196 124.238 142.607 124.505 144.836C124.537 145.097 125.651 145.839 125.371 146.697C126.061 146.847 121.158 146.437 121.657 146.429L120.882 145.845Z"/><path fill="#0719AA" d="M118.613 147.485C114.348 144.646 118.447 140.413 115.707 137.472L115.514 137.268C116.373 136.872 117.087 137.031 118.051 137.103C119.738 138.727 117.52 142.185 119.023 145.232C119.912 145.961 119.591 145.755 120.882 145.845L121.657 146.429C120.464 146.951 119.875 147.141 118.613 147.485Z"/><path fill="#0719AA" d="M51.3314 137.548C52.2798 140.221 51.966 142.777 52.119 145.56C52.1339 145.831 52.9257 146.46 53.1727 146.649L52.8733 147.026C51.5529 147.076 49.8774 147.23 48.6308 146.91C48.9023 146.337 49.8125 146.021 49.8444 145.913C50.3174 144.321 49.9941 140.04 49.65 138.57C50.2957 138.406 50.784 137.956 51.3314 137.548Z"/><path fill="#0719AA" d="M150.883 133.71C154.003 131.784 156.601 132.326 160.365 132.442C160.543 132.448 160.823 132.677 160.966 132.789C161.235 134.722 161.199 136.436 161.208 138.379C159.371 134.592 156.975 131.432 152.618 134.616L150.883 133.71Z"/><path fill="#0719AA" d="M200.45 140.831L202.166 140.638C202.384 143.595 202.56 144.463 205.288 145.768C205.038 146.078 204.907 146.199 204.754 146.568L206.009 147.069C201.32 148.051 200.322 144.723 200.45 140.831Z"/><path fill="#0719AA" d="M55.5545 140.04L55.8024 141.194C55.5885 143.329 56.7346 144.541 58.3505 145.746L57.9645 146.544L58.9354 147.349C58.6566 147.344 58.3779 147.333 58.0994 147.318C54.4246 147.111 53.8286 144.19 54.0023 141.103C54.8462 140.823 54.9393 140.694 55.5545 140.04Z"/><path fill="#19258D" d="M200.45 140.831C201.833 137.353 205.518 135.506 208.407 138.275C208.704 139.266 208.73 138.867 208.342 139.779L207.803 140.031C205.876 139.248 204.159 135.65 202.402 140.014C202.319 140.221 202.24 140.429 202.166 140.638L200.45 140.831Z"/><path fill="#19258D" d="M196.329 138.304L195.066 137.657C192.551 137.747 193.995 139.534 192.338 140.344C191.429 139.874 191.721 140.154 191.205 139.303L191.394 138.61C192.11 137.78 193.073 137.2 194.142 136.956C195.494 136.642 196.393 137.054 197.499 137.736L196.675 138.361L196.329 138.304Z"/><path fill="#19258D" d="M154.015 145.997C159.052 146.865 158.842 144.956 162.605 143.28C159.684 146.706 158.702 147.423 154.059 147.364C153.715 146.964 153.646 146.862 153.369 146.411L154.015 145.997Z"/><path fill="#19258D" d="M58.3505 145.746C61.0007 145.645 61.5977 143.888 63.8258 142.411C62.4381 144.836 61.7554 146.545 58.9354 147.349L57.9645 146.544L58.3505 145.746Z"/><path fill="#0719AA" d="M45.7658 138.426C47.9441 136.953 48.7998 136.64 51.3314 137.548C50.784 137.956 50.2957 138.406 49.65 138.57C48.0404 138.175 47.772 138.414 46.2747 139.288L45.7658 138.426Z"/><path fill="#19258D" d="M205.288 145.768C207.253 145.26 208.41 143.802 210.067 142.603C208.948 144.259 207.84 146.222 206.009 147.069L204.754 146.568C204.907 146.199 205.038 146.078 205.288 145.768Z"/></svg>