<?xml version="1.0" encoding="utf-8" ?><svg xmlns="http://www.w3.org/2000/svg" xmlns:xlink="http://www.w3.org/1999/xlink" width="600" height="329" viewBox="0 0 600 329"><path fill="#FEFEFE" d="M0.472509 15.1313L0.540888 14.9064C0.922975 13.6257 1.09155 11.977 1.45613 10.5819C3.99104 0.881699 12.7541 1.96105 20.6405 1.98505C24.0862 1.99554 27.5673 1.98371 30.982 1.98387L64.0379 1.99272L164.265 2.00288L470.525 2.00376L557.361 1.99489C567.753 1.99258 580.004 1.62561 590.388 2.40365C594.025 2.6762 598.737 7.91029 598.828 11.8404C599.103 23.5973 598.802 35.7799 598.908 47.581C598.916 48.4521 598.954 49.5217 598.849 50.383C599.294 53.612 599.11 60.504 599.107 64.0015L599.081 88.9133L599.078 174.737L599.085 243.615L599.121 263.455C599.123 264.885 599.216 271.52 599.033 272.722C599.702 274.897 599.32 312.971 599.124 317.387C599.204 320.264 599.52 326.487 599.017 329L598.846 329L0.603449 329L0 329L0 321.721L0 297.067L0.346865 297.07C0.614275 289.27 0.4024 280.258 0.401728 272.387L0.396053 225.885L0.394631 86.2189L0.454024 38.2347C0.46524 31.3585 0.0799189 21.7639 0.472509 15.1313ZM190.408 215.061C191.795 215.106 193.183 215.128 194.572 215.125L194.75 214.731L193.722 213.878C193.428 211.435 193.588 204.399 193.587 201.619C192.652 201.88 191.113 202.142 190.537 202.742L191.671 203.836C192.066 205.994 191.972 211.174 191.616 213.556C191.501 214.323 191.141 214.35 190.498 214.71L190.408 215.061Z"/><path fill="#FEFEFE" d="M0.472509 15.1313L0.540888 14.9064C0.922975 13.6257 1.09155 11.977 1.45613 10.5819C3.99104 0.881699 12.7541 1.96105 20.6405 1.98505C24.0862 1.99554 27.5673 1.98371 30.982 1.98387L64.0379 1.99272L164.265 2.00288L470.525 2.00376L557.361 1.99489C567.753 1.99258 580.004 1.62561 590.388 2.40365C594.025 2.6762 598.737 7.91029 598.828 11.8404C599.103 23.5973 598.802 35.7799 598.908 47.581C598.916 48.4521 598.954 49.5217 598.849 50.383L598.716 52.167C598.995 69.0273 598.659 86.1515 598.79 103.043C594.828 102.464 581.477 102.764 576.866 102.768L533.547 102.772L379.053 102.773L125.666 102.771L43.4373 102.77L16.9459 102.76C11.9506 102.759 5.87045 102.617 0.951295 102.913C0.831694 86.2707 0.724631 68.9908 0.953104 52.3693L0.989829 30.1877C0.998438 26.5662 1.15192 18.5304 0.472509 15.1313Z"/><path fill="#DFE0E3" d="M0.472509 15.1313L0.540888 14.9064C0.922975 13.6257 1.09155 11.977 1.45613 10.5819C3.99104 0.881699 12.7541 1.96105 20.6405 1.98505C24.0862 1.99554 27.5673 1.98371 30.982 1.98387L64.0379 1.99272L164.265 2.00288L470.525 2.00376L557.361 1.99489C567.753 1.99258 580.004 1.62561 590.388 2.40365C594.025 2.6762 598.737 7.91029 598.828 11.8404C599.103 23.5973 598.802 35.7799 598.908 47.581C598.916 48.4521 598.954 49.5217 598.849 50.383L598.716 52.167C586.971 52.6394 572.507 52.2343 560.488 52.2284L487.743 52.2192L433.528 52.2184L417.484 52.243C407.824 52.3013 398.057 53.9973 398.076 40.5316C398.084 34.6727 398.171 28.709 398.162 22.8397C398.138 9.24411 386.15 11.5132 376.759 11.5338L354.765 11.538L284.488 11.5406L175.785 11.541L140.538 11.5391C134.603 11.5342 128.288 11.4835 122.437 11.5231C111.838 11.595 110.509 17.9955 110.813 26.9717C110.926 30.3056 110.762 34.271 110.872 37.6617C111.295 45.4474 109.811 52.0566 100.563 52.1977C92.0045 52.3752 83.1971 52.2337 74.6634 52.2277L24.244 52.222C17.2261 52.2233 7.825 51.9646 0.953104 52.3693L0.989829 30.1877C0.998438 26.5662 1.15192 18.5304 0.472509 15.1313Z"/><path fill="#FD5F5D" d="M31.2321 20.6858C35.1132 19.6476 39.1018 21.9492 40.1451 25.8289C41.1884 29.7086 38.8921 33.7002 35.0137 34.7486C31.128 35.799 27.1273 33.4974 26.0821 29.6105C25.0368 25.7235 27.3437 21.7259 31.2321 20.6858Z"/><path fill="#31C646" d="M79.1949 20.6835C83.0681 19.6989 87.0091 22.0286 88.0137 25.8966C89.0183 29.7647 86.709 33.7176 82.8461 34.7422C78.9549 35.7743 74.9666 33.4443 73.9546 29.5479C72.9427 25.6514 75.2932 21.6753 79.1949 20.6835Z"/><path fill="#FCBA3F" d="M55.1953 20.7149C59.0288 19.7093 62.9581 21.9732 64.0109 25.7938C65.0637 29.6145 62.8485 33.5715 59.041 34.6713C56.536 35.3949 53.8353 34.7154 51.971 32.8924C50.1067 31.0694 49.3669 28.3846 50.0343 25.864C50.7017 23.3434 52.6732 21.3765 55.1953 20.7149Z"/><path fill="#414142" d="M423.555 24.6851C424.831 24.8487 424.586 24.6231 425.368 25.3898C425.875 26.858 425.645 29.027 425.66 30.7423C427.748 30.6961 429.754 30.3427 431.37 31.6284L431.397 32.1518C429.99 33.4762 427.571 33.1399 425.661 33.0998C425.653 35.1035 425.581 37.1064 425.444 39.1054C424.214 38.9814 424.443 39.1872 423.63 38.4882C423.059 37.1284 423.301 34.7272 423.324 33.1188C421.747 33.1291 418.163 33.5133 417.533 31.7767C418.941 30.3242 421.447 30.7047 423.362 30.7326C423.341 28.5033 423.376 26.9046 423.555 24.6851Z"/><path fill="#040404" d="M567.691 28.9554C569.389 29.1609 571.769 32.4448 572.841 33.8019C573.256 33.2873 573.679 32.7796 574.11 32.2789C574.967 31.2903 576.65 29.4227 577.953 29.329L578.106 29.9594L577.732 30.3644C576.189 32.1983 574.481 33.9857 572.845 35.7444C571.229 33.8625 567.667 31.0455 567.691 28.9554Z"/><path fill="#79909B" d="M533.458 64.3057C540.642 63.6898 546.984 68.9722 547.676 76.1496C548.369 83.3271 543.154 89.7243 535.984 90.4933C531.278 90.9981 526.663 88.9356 523.9 85.0924C521.137 81.2491 520.651 76.2178 522.629 71.9172C524.606 67.6167 528.741 64.71 533.458 64.3057Z"/><path fill="#FEFEFE" d="M531.165 72.4771C532.597 72.3908 536.762 72.0863 537.81 72.7359L537.761 73.3421C536.286 74.2678 534.037 72.9137 532.662 74.2503C532.52 77.6511 534.033 76.401 537.26 77.3521L536.896 77.2913C535.753 78.249 534.314 77.9621 532.65 77.9829C532.636 78.3674 532.583 80.4205 532.602 80.6068C532.743 81.9751 536.112 80.6475 537.844 82.17C536.678 82.9395 532.572 82.6065 531.136 82.5149C531.066 79.2307 531.144 75.7744 531.165 72.4771Z"/><defs><linearGradient id="gradient_0" gradientUnits="userSpaceOnUse" x1="488.66177" y1="77.325699" x2="503.89807" y2="77.345932"><stop offset="0" stop-color="#4C4C51"/><stop offset="1" stop-color="#696A6C"/></linearGradient></defs><path fill="url(#gradient_0)" d="M488.022 69.1705C493.409 69.3151 499.121 69.1648 504.534 69.1031C504.579 74.6578 504.574 80.2128 504.52 85.7675C498.973 85.8019 493.623 85.594 488.011 85.7304C488.293 80.2263 488.183 74.6754 488.022 69.1705Z"/><path fill="#FEFEFE" d="M491.492 71.3318C493.867 71.2874 496.297 71.3893 498.676 71.4604C498.656 73.5833 499.008 81.9729 498.377 83.3274L497.534 83.5038L490.022 83.5161C490.073 81.3812 489.62 72.8974 490.498 71.5142L491.492 71.3318Z"/><path fill="#5E5F62" d="M132.786 23.8244C137.225 22.6932 141.748 25.3422 142.933 29.7669C144.118 34.1917 141.524 38.7467 137.114 39.9852C134.213 40.7998 131.098 39.9917 128.959 37.8695C126.82 35.7473 125.988 32.639 126.78 29.732C127.572 26.825 129.866 24.5684 132.786 23.8244Z"/><path fill="#FEFEFE" d="M133.397 25.5137C134.384 25.431 135.269 25.2242 135.955 25.9479C135.428 27.6385 133.035 27.9184 133.067 29.7697C133.809 30.4546 135.916 30.4353 136.081 30.7893C137.669 34.1805 140.169 31.6541 141.503 32.4408C141.854 34.656 138.277 37.3866 136.466 38.2644C135.254 38.4904 134.307 38.5753 133.18 38.0463C132.612 37.1538 132.735 37.5648 132.74 36.4818L133.295 36.0591C134.185 36.0775 134.464 36.1105 135.316 35.8721L135.599 35.3003C135.259 31.221 131.41 31.8726 128.185 31.766C129.036 28.3008 130.036 26.8856 133.397 25.5137Z"/><path fill="#040404" d="M459.021 69.5376C461.692 69.3313 463.482 69.3262 466.168 69.3941C466.118 71.7029 466.091 73.9388 465.846 76.2371C465.114 83.1077 460.918 87.5734 453.893 84.5649C453.448 84.1044 453.722 84.2738 452.981 84.1717C452.787 84.3337 452.589 84.4908 452.387 84.6429C451.846 85.0482 450.709 85.7348 450.035 85.6327C450.456 84.5201 451.281 83.99 452.206 83.2287C446.685 76.4852 451.307 70.698 459.021 69.5376Z"/><path fill="#FEFEFE" d="M460.356 70.7203L464.695 70.6172C464.697 71.2707 464.693 71.9241 464.682 72.5775C464.564 79.2451 463.722 84.2842 455.87 84.1111C448.936 80.695 449.876 73.769 456.997 71.2817C457.905 70.9648 459.374 70.8397 460.356 70.7203Z"/><path fill="#040404" d="M459.205 72.8841L459.484 73.2002C459.142 74.1144 457.561 75.8522 456.863 76.6917C458.477 76.6725 460.236 76.9494 461.85 77.1532C460.143 78.4434 458.422 80.2704 456.886 81.8111L456.536 81.758C456.557 81.0017 458.525 78.7821 459.125 78.0282C457.495 78.1293 455.667 77.8951 454.025 77.7406C455.659 76.4715 457.678 74.382 459.205 72.8841Z"/><path fill="#040404" d="M150.114 70.1601C154.29 69.1777 158.472 71.7681 159.453 75.945C160.434 80.122 157.842 84.3029 153.664 85.282C149.489 86.2605 145.311 83.6703 144.331 79.4956C143.351 75.321 145.939 71.1419 150.114 70.1601Z"/><path fill="#FEFEFE" d="M150.084 71.3853C153.539 70.4034 157.142 72.3847 158.163 75.8289C159.184 79.2732 157.244 82.8979 153.812 83.9584C151.556 84.6552 149.1 84.086 147.382 82.4681C145.663 80.8502 144.946 78.4332 145.505 76.1398C146.064 73.8464 147.813 72.0306 150.084 71.3853Z"/><path fill="#040404" d="M151.349 76.8287C152.124 77.0501 151.926 76.8776 152.388 77.422C152.746 78.9509 152.482 80.3133 152.297 81.8659C151.815 81.6833 151.821 81.6334 151.417 81.3153C151.064 80.0592 151.275 78.1827 151.349 76.8287Z"/><path fill="#414142" d="M410.047 68.7913C410.645 69.3981 412.04 73.5808 412.411 74.6075C414.7 74.6835 416.777 74.8604 419.059 75.0665C417.387 76.3791 415.614 77.9203 413.967 79.2917C414.538 81.6145 415.076 83.6538 415.775 85.9396C414.024 84.6478 412.091 83.3558 410.293 82.1103C409.379 82.1851 405.384 85.2477 404.474 85.9399C405.141 84.2964 405.831 81.1028 406.322 79.2129C404.595 77.7941 402.84 76.4118 401.055 75.0668C403.448 74.8592 405.45 74.7253 407.85 74.6777C408.352 72.977 409.381 70.5107 410.047 68.7913Z"/><path fill="#FEFEFE" d="M409.905 72.4966C410.784 73.1786 411.135 74.6216 411.52 75.7174L415.272 76.2405C414.363 77.0244 413.298 77.8 412.334 78.5328L413.315 82.7534C412.243 82.0172 411.192 81.1302 410.177 80.3065L406.859 82.7409L407.75 78.5259L404.775 76.1359L408.608 75.7852C409.062 74.7603 409.496 73.555 409.905 72.4966Z"/><path fill="#040404" d="M272.38 71.4696C277.127 71.3218 278.106 74.4462 277.682 78.8653C277.489 80.8764 276.658 82.1783 275.005 83.3561C268.266 83.9435 268.324 74.7206 272.38 71.4696Z"/><path fill="#FEFEFE" d="M273.066 72.2132C277.806 72.7419 277.414 79.8653 274.382 82.5556C269.743 82.3972 269.865 74.7891 273.066 72.2132Z"/><path fill="#040404" d="M282.956 71.4645C287.847 71.2978 288.762 75.0277 288.056 79.3349C287.741 81.2612 286.931 82.315 285.295 83.3713C278.7 83.7776 278.807 74.4478 282.956 71.4645Z"/><path fill="#FEFEFE" d="M283.388 72.2833C288.138 72.2973 288.073 79.9116 284.701 82.5978C279.982 81.7077 280.621 75.0672 283.388 72.2833Z"/><path fill="#040404" d="M261.878 71.4713C268.55 71.0077 268.775 80.5239 264.15 83.3612C257.759 83.7982 257.636 74.4894 261.878 71.4713Z"/><path fill="#FEFEFE" d="M262.351 72.3024C267.072 72.3396 266.888 79.9018 263.77 82.5207C259.135 82.578 259.263 75.1317 262.351 72.3024Z"/><path fill="#040404" d="M234.578 26.4652C238.854 26.1683 241.351 28.2142 240.657 32.942C240.409 34.6322 239.218 35.7749 237.759 36.6358C230.482 37.4278 229.511 29.3985 234.578 26.4652Z"/><path fill="#FEFEFE" d="M234.855 27.4973C240.464 27.0933 241.019 33.3499 237.056 35.685C231.926 35.8459 231.488 30.606 234.855 27.4973Z"/><path fill="#040404" d="M221.072 74.4327C223.088 74.2868 224.537 74.3337 225.819 76.1326C226.546 77.1537 226.821 78.4283 226.581 79.6582C226.209 81.6156 225.423 82.4006 223.852 83.4347C221.841 83.5265 220.473 83.4005 219.21 81.6161C218.496 80.5934 218.224 79.3262 218.456 78.1006C218.8 76.2443 219.594 75.4437 221.072 74.4327Z"/><path fill="#FEFEFE" d="M221.782 75.5123C225.944 75.9286 226.066 79.9918 223.264 82.207C218.882 81.8306 219.081 77.9224 221.782 75.5123Z"/><path fill="#040404" d="M178.381 74.4595C180.353 74.2502 181.822 74.3278 183.103 76.0595C183.873 77.081 184.18 78.3787 183.949 79.637C183.601 81.5536 182.821 82.3197 181.303 83.3423C175.546 84.2026 173.717 77.7802 178.381 74.4595Z"/><path fill="#FEFEFE" d="M179.358 75.4893C183.352 76.2072 183.436 80.1051 180.517 82.2371C176.26 81.6218 176.275 77.7132 179.358 75.4893Z"/><path fill="#414142" d="M26.9777 69.6297C27.422 69.8557 27.215 69.7206 27.5026 70.3022C27.0362 71.7846 23.1825 75.0888 21.8355 76.3354C24.0288 76.4657 33.5894 76.1201 34.7313 76.8932C34.6591 77.0852 34.5869 77.2771 34.5146 77.4691C32.5622 78.038 23.838 77.2476 22.5658 78.1692L22.7587 78.6456C25.3191 81.0902 27.0841 82.5193 28.7059 85.678C26.201 84.2362 21.2905 79.2799 19.1226 77.1121C21.4225 74.7234 24.5155 71.949 26.9777 69.6297Z"/><path fill="#040404" d="M197.358 74.4501C198.184 74.3943 199.561 74.2758 200.297 74.6267C202.873 75.8556 202.927 81.0633 201.937 83.1876C199.189 83.1822 197.186 83.8575 195.298 82.1951C194.513 76.9545 199.341 79.3708 200.741 76.9805L200.37 76.2661C198.543 75.2358 197.818 76.3961 195.694 76.5526L195.654 76.0729C196.061 75.1531 196.519 74.9692 197.358 74.4501Z"/><path fill="#FEFEFE" d="M197.364 79.4949C198.573 79.3712 200.083 78.9175 200.764 80.0479C200.595 80.9475 200.036 81.3727 199.395 82.0183C198.068 82.3708 197.097 82.1516 196.485 80.8878C196.723 79.9203 196.546 80.2845 197.364 79.4949Z"/><path fill="#A3A1A3" d="M64.699 69.8956C66.8818 69.9417 71.77 75.5334 73.4488 77.2768C72.0442 78.5148 66.3832 84.2438 65.2002 84.2991L65.1314 84.0371C65.2852 82.8444 68.3957 80.0627 69.4411 79.0189C69.8225 78.5236 69.7181 78.7934 69.7892 78.1913C67.589 76.8935 58.9177 78.4121 57.7854 77.0889L58.0386 76.7089C60.7903 76.2207 67.123 76.5446 70.69 76.2412C68.9275 74.6443 65.7826 71.9711 64.699 69.8956Z"/><path fill="#040404" d="M108.343 73.1538C107.08 72.0911 105.842 71.318 104.144 71.2361C102.323 71.1471 100.545 71.8169 99.2353 73.0862C96.1904 76.0228 97.1366 79.2765 99.6999 82.1224C104.543 87.5001 109.145 79.5513 110.576 79.5464C111.204 83.1955 103.567 86.4852 100.054 83.9306C91.0046 77.3507 99.324 65.4845 109.303 72.0939L108.343 73.1538Z"/><path fill="#040404" d="M155.506 26.1582C157.597 26.7076 159.492 33.3816 160.165 35.4122C161.027 33.4691 163.025 27.2529 164.684 26.4144L165.066 26.8131C165.474 28.2432 165.626 35.7348 164.462 36.4822C164.037 34.6905 164.13 33.1076 164.141 31.274L164.111 29.8888L163.795 29.7175C162.726 31.3414 161.517 35.0459 160.169 37.4579C158.88 34.4339 157.616 31.3991 156.377 28.354C156.422 30.3613 156.848 35.2929 155.95 36.7265L155.601 36.6675C154.902 34.7981 155.369 28.4399 155.506 26.1582Z"/><path fill="#040404" d="M247.91 35.3566C248.704 33.103 249.768 30.792 250.712 28.585C251.388 27.0028 251.218 26.8007 252.573 26.2655C253.171 28.1786 253.059 35.1278 252.061 36.8523C251.574 35.2663 251.744 32.5578 251.782 30.8325C251.806 30.7156 251.793 30.0621 251.793 29.8973L251.403 29.9805C250.411 31.5199 249.052 35.2402 247.924 37.3985C246.561 34.8528 245.096 30.9951 243.966 28.2268C244.025 30.3041 244.462 35.189 243.607 36.7378L243.255 36.6049C242.611 34.5274 242.989 28.4009 243.252 26.1677C245.246 26.9237 247.105 33.1888 247.91 35.3566Z"/><path fill="#040404" d="M376.805 84.8097C376.817 82.4055 377.037 78.7237 376.627 76.3526C376.432 75.2287 375.519 75.7482 374.109 75.15L374.128 74.7318L374.731 74.3402C375.972 74.433 376.777 74.5017 377.643 75.3104C377.976 76.8357 378.419 84.9992 377.215 85.4736C375.23 86.2557 367.058 86.7511 365.687 84.4629C365.573 81.9758 365.339 78.1434 365.869 75.6733C366.041 74.8713 366.564 74.7857 367.228 74.4771C368.197 74.4942 368.872 74.4105 369.712 74.8691C369.45 76.0748 368.003 74.9693 366.874 76.0804C366.513 77.77 366.722 82.7419 366.72 84.7314C370.09 84.9529 373.43 84.8584 376.805 84.8097Z"/><path fill="#040404" d="M209.191 70.6624C210.071 70.856 209.78 70.6807 210.438 71.2585C211.031 72.894 209.625 74.2183 210.808 75.1774C211.307 74.9772 211.848 74.7571 212.359 74.5978C217.408 73.0222 217.092 80.9698 215.452 83.4706L215.001 83.3075C214.849 81.5269 214.881 79.5103 214.867 77.7067C214.527 75.6253 213.193 75.0842 211.393 76.0861C209.99 77.9348 210.743 80.8661 210.327 83.3785L209.806 83.6392L210.242 83.5428L209.558 83.3909C208.595 81.9716 209.107 72.8518 209.191 70.6624Z"/><path fill="#040404" d="M187.511 26.2064C188.825 26.6552 191.751 35.1473 191.473 36.5666C189.58 36.1583 191.634 33.8015 187.418 33.618C184.901 33.6766 186.102 34.7654 183.807 36.486C183.55 35.446 186.703 27.5036 187.511 26.2064Z"/><path fill="#FEFEFE" d="M187.539 28.2679C188.402 28.8452 189.06 31.3544 189.057 32.3805L188.385 32.8484C187.577 32.7805 187.102 32.8268 186.45 32.3586C186.175 31.0537 186.992 29.684 187.539 28.2679Z"/><path fill="#040404" d="M193.93 26.2085C195.646 26.8473 199.312 32.8415 200.617 34.6976C200.619 33.3278 200.506 27.4507 200.848 26.5546L201.277 26.4799C202.153 27.8903 201.711 34.4125 201.72 36.5213C201.213 36.6187 201.292 36.5787 200.766 36.4854C198.898 34.5452 196.38 30.5702 194.779 28.1899C194.885 30.8055 195.138 33.5075 194.549 36.0519L194.245 36.1997C193.305 34.1461 193.717 28.5784 193.93 26.2085Z"/><path fill="#040404" d="M374.647 27.3632C376.179 27.6599 377.888 29.8421 378.991 31.039C379.925 30.017 381.527 27.9293 382.964 27.9586L383.002 28.4971C382.395 29.8598 380.995 30.9124 379.856 31.9259C380.528 32.5069 381.192 33.0959 381.85 33.6928C383.056 34.7994 383.383 35.0508 383.449 36.4793C381.942 36.3049 380.117 34.0064 379.038 32.8514C377.982 33.9567 376.724 35.5478 375.268 35.8387L375.044 35.4289C375.507 34.1262 377.043 32.8937 378.091 31.8997C377.37 31.2444 376.655 30.5826 375.946 29.9145C374.784 28.8102 374.678 28.7514 374.647 27.3632Z"/><path fill="#040404" d="M230.491 74.4589C232.126 74.3288 234.967 74.3102 234.951 76.477C233.54 76.8443 232.08 74.9013 230.238 76.0843L230.072 76.9521C231.252 78.5431 235.134 78.3335 235.591 81.1389C235.124 82.3415 233.777 82.9649 232.668 83.4697C231.11 83.4741 230.193 83.2719 228.909 82.3903C228.429 81.5077 228.477 81.9013 228.738 80.9184L229.334 81.0315L229.321 81.0244C231.035 82.0313 232.017 82.8209 233.683 81.3484L233.695 80.7352C232.261 79.1203 224.757 77.8578 230.491 74.4589Z"/><path fill="#040404" d="M251.626 71.4964C253.419 71.4782 255.429 71.5839 256.262 73.3712C256.235 74.8222 255.411 75.8735 254.646 77.1455C257.241 79.9773 258.275 81.9893 253.186 83.3596C251.755 83.7448 249.27 82.2387 248.979 80.6695L249.413 80.5334C250.199 81.06 250.641 81.604 251.268 82.2952C252.863 82.3981 254.731 82.2593 255.513 80.6126C255.786 78.1444 253.214 77.9027 251.291 77.3382L251.137 77.0023C253.15 76.5041 255.051 76.4864 255.05 73.9746C254.451 72.8945 254.783 73.1885 253.835 72.6494C251.965 72.4682 250.674 73.4031 249.072 74.3207L248.979 73.8502C250.084 72.4067 249.859 72.2758 251.626 71.4964Z"/><path fill="#040404" d="M168.023 26.5159C169.191 26.4989 173.213 26.4222 174.09 26.9201C173.111 27.4533 170.06 27.4594 168.905 28.6138C168.935 32.7248 170.868 30.199 173.75 31.0526L173.853 31.5627C172.877 32.1747 170.403 31.9684 169.009 31.993C169.003 32.3122 168.994 35.164 169.059 35.1985C170.314 35.873 173.149 34.9199 174.288 35.999L173.946 36.4059C172.274 36.7633 169.633 36.6067 167.853 36.5737C167.845 33.8386 167.697 29.0777 168.023 26.5159Z"/><path fill="#040404" d="M188.308 74.4529C190.395 74.2871 192.619 74.3714 193.42 76.7661C191.806 77.0778 189.96 74.8743 187.654 76.7027C186.525 78.8263 187.466 82.1704 190.624 82.1688C191.429 81.4894 191.928 80.8963 192.939 80.8026L193.261 81.1354C192.297 85.2434 184.829 83.4345 185.893 78.4352C186.38 76.1482 186.422 75.9863 188.308 74.4529Z"/><path fill="#040404" d="M224.338 26.436C225.224 26.3609 226.385 26.3329 227.25 26.5906C228.13 26.8529 229.968 28.5872 229.624 29.5587C228.553 29.2303 226.982 27.4729 226.265 27.4332C221.817 27.1869 220.811 34.9157 226.051 35.809C227.7 35.3603 227.652 34.6257 229.448 33.9313L229.675 34.1978C227.149 39.9283 219.495 35.6453 221.664 29.6968C222.376 27.7414 222.501 27.5349 224.338 26.436Z"/><path fill="#040404" d="M238.416 71.8288C240.261 72.3874 239.069 73.1495 239.978 74.2573C240.191 74.5167 241.055 74.0828 241.732 75.0051C241.118 76.1447 240.75 75.1573 239.726 76.2781C239.597 77.4779 239.339 80.4981 240.009 81.5192C240.896 82.0387 241.326 82.2659 241.926 83.1282C240.983 83.4803 239.903 83.4927 239.013 83.001C237.371 81.1862 238.637 78.3938 238.038 76.0909L236.891 75.5319C236.682 74.6505 237.265 74.4128 237.829 73.7306C238.321 73.1364 238.274 72.5964 238.416 71.8288Z"/><path fill="#5E5F62" d="M109.303 72.0939C110.297 71.6953 111.311 70.4161 112.076 69.5828L112.003 76.2152L105.465 76.2289C106.619 75.2007 107.535 74.4902 108.343 73.1538L109.303 72.0939Z"/><path fill="#040404" d="M175.971 26.5103C177.203 26.4942 182.7 26.2671 183.384 27.2304C182.255 27.7189 181.434 27.6175 180.204 27.6L180.244 33.1783C180.281 34.2242 180.546 36.0569 179.696 36.734C178.413 35.4452 179.385 30.4019 179.088 28.5929C178.804 26.8623 177.089 28.0985 175.843 27.267L175.971 26.5103Z"/><path fill="#040404" d="M207.929 26.5101C210.655 26.5457 212.426 26.3788 215.132 26.8902L215.305 27.1967C214.219 27.7148 213.273 27.6231 212.067 27.6316L212.102 33.7642C212.134 34.7269 212.358 36.1463 211.548 36.7083L211.119 36.4732C210.704 34.9426 210.919 29.5521 210.956 27.6243C209.965 27.6417 208.17 27.8459 207.542 27.092L207.929 26.5101Z"/><path fill="#040404" d="M205 70.6379L205.85 70.8495C206.965 71.9575 206.21 80.7173 206.49 83.4166C205.731 83.4209 205.629 83.4222 204.973 83.0478C204.645 81.6422 204.953 72.5975 205 70.6379Z"/><path fill="#414142" d="M371.645 69.335C372.598 69.7993 374.473 71.5238 374.85 72.5412L374.577 72.8485C373.854 72.5156 373.617 72.353 372.968 71.8896C372.019 73.1136 372.384 78.0907 372.224 80.2888C369.985 78.5604 372.56 72.9605 370.712 71.9682C370.17 72.3089 369.625 72.646 369.078 72.9793L368.866 72.4939C369.252 71.6664 370.929 70.0745 371.645 69.335Z"/><path fill="#040404" d="M172.265 70.6385L173.212 70.9708C173.93 72.5807 173.581 80.9934 173.589 83.3362C173.145 83.4293 172.969 83.3472 172.523 83.2519C171.755 81.6676 172.213 72.8082 172.265 70.6385Z"/><path fill="#040404" d="M204.708 26.1705L205.344 26.5136C206.069 27.6705 205.685 35.2462 205.552 36.9351L204.895 36.5941C204.131 35.3446 204.466 27.8556 204.708 26.1705Z"/><path fill="#5E5F62" d="M572.047 81.9101C572.607 81.5952 573.297 81.6208 573.833 81.9764C574.368 82.332 574.66 82.9576 574.588 83.5966C574.515 84.2355 574.091 84.7801 573.489 85.0067C572.651 85.3224 571.711 84.9389 571.333 84.127C570.954 83.315 571.266 82.3487 572.047 81.9101Z"/><path fill="#5E5F62" d="M572.31 75.7885C573.168 75.4796 574.117 75.8988 574.466 76.7408C574.815 77.5827 574.441 78.5504 573.616 78.9387C573.047 79.2067 572.377 79.14 571.872 78.7651C571.366 78.3902 571.108 77.7679 571.2 77.1455C571.292 76.5232 571.719 76.0018 572.31 75.7885Z"/><path fill="#5E5F62" d="M572.05 69.9285C572.859 69.4742 573.883 69.7519 574.352 70.5526C574.821 71.3534 574.562 72.3821 573.769 72.8653C573.244 73.1856 572.587 73.1975 572.05 72.8963C571.514 72.595 571.181 72.0277 571.181 71.4124C571.181 70.7971 571.514 70.2297 572.05 69.9285Z"/><path fill="#C1BEC2" d="M0.472509 15.1313C1.15192 18.5304 0.998438 26.5662 0.989829 30.1877L0.953104 52.3693C0.724631 68.9908 0.831694 86.2707 0.951295 102.913C5.87045 102.617 11.9506 102.759 16.9459 102.76L43.4373 102.77L125.666 102.771L379.053 102.773L533.547 102.772L576.866 102.768C581.477 102.764 594.828 102.464 598.79 103.043C598.659 86.1515 598.995 69.0273 598.716 52.167L598.849 50.383C599.294 53.612 599.11 60.504 599.107 64.0015L599.081 88.9133L599.078 174.737L599.085 243.615L599.121 263.455C599.123 264.885 599.216 271.52 599.033 272.722C598.442 271.387 598.73 116.467 598.77 103.457L186.968 103.499L61.3889 103.481L21.9252 103.481C16.08 103.481 6.48658 103.181 0.955213 103.64L0.902352 260.62L0.89811 301.216C0.89969 303.693 1.10886 315.887 0.889461 317.173C1.20718 320.904 1.24603 321.162 3.09015 324.409L2.57431 324.919C1.53109 322.972 1.20609 324.538 0 321.721L0 297.067L0.346865 297.07C0.614275 289.27 0.4024 280.258 0.401728 272.387L0.396053 225.885L0.394631 86.2189L0.454024 38.2347C0.46524 31.3585 0.0799189 21.7639 0.472509 15.1313Z"/><defs><linearGradient id="gradient_1" gradientUnits="userSpaceOnUse" x1="2.2246959" y1="323.08044" x2="1.349714" y2="323.37537"><stop offset="0" stop-color="#919598"/><stop offset="1" stop-color="#BBB7C4"/></linearGradient></defs><path fill="url(#gradient_1)" d="M0 297.067L0.346865 297.07C0.40308 299.572 0.500933 316.3 0.889461 317.173C1.20718 320.904 1.24603 321.162 3.09015 324.409L2.57431 324.919C1.53109 322.972 1.20609 324.538 0 321.721L0 297.067Z"/><path fill="#C1BEC2" d="M598.846 329C598.827 328.286 598.888 327.997 598.542 327.403C595.934 326.52 595.025 327.949 593.739 327.693C594.163 326.662 596.492 325.303 597.523 323.213C599.039 320.139 598.353 320.143 599.124 317.387C599.204 320.264 599.52 326.487 599.017 329L598.846 329Z"/><path fill="#DFE0E3" d="M0 321.721C1.20609 324.538 1.53109 322.972 2.57431 324.919C3.21271 325.638 3.8455 326.361 4.47263 327.09C3.31028 327.394 1.7523 327.45 1.0637 327.905L0.603449 329L0 329L0 321.721Z"/><path fill="#A3A1A3" d="M3.09015 324.409C4.0844 325.397 4.99588 326.309 5.93771 327.355L5.8021 327.632C5.33688 327.459 4.91765 327.316 4.47263 327.09C3.8455 326.361 3.21271 325.638 2.57431 324.919L3.09015 324.409Z"/><path fill="#040404" d="M14.4274 175.304C17.7336 175.212 29.6503 174.838 23.2501 181.345C23.8148 183.554 27.6059 183.191 24.1421 187.232C21.2925 188.581 17.7503 188.26 14.6471 188.102L14.4097 187.75L15.8495 186.734C16.1976 185.321 16.3518 177.893 15.789 176.566C15.0345 176.083 14.8727 176.044 14.4274 175.304Z"/><path fill="#FEFEFE" d="M18.1998 181.908C21.2645 182.136 24.3472 182.683 22.2801 186.596C20.7072 187.063 19.8317 187.653 18.4929 186.631C17.9442 185.455 18.1634 183.29 18.1998 181.908Z"/><path fill="#FEFEFE" d="M18.239 176.186C21.2537 176.283 23.6527 176.87 21.9174 180.454C20.9725 180.709 19.241 180.911 18.211 181.061C18.147 179.467 18.2089 177.788 18.239 176.186Z"/><path fill="#040404" d="M43.4128 125.189C45.6822 125.116 44.7679 125.368 46.584 126.047C46.7823 126.121 50.7945 123.794 51.3477 125.914C51.666 127.133 52.7422 133.469 52.3179 134.261C49.7748 134.053 45.6553 134.57 43.408 134.147L43.1702 133.639C43.7294 132.653 43.7087 132.406 43.7603 131.322C43.8102 129.908 44.106 127.744 43.2033 126.74C42.2831 126.628 42.6476 126.549 41.8376 127.063C40.8017 129.145 42.0125 131.85 41.7304 134.202C40.8892 134.429 38.6516 134.378 37.7698 134.023C38.1444 132.3 38.7069 129.497 38.622 127.752C38.5848 126.986 37.9803 126.476 37.9985 125.367C39.7465 124.89 41.336 126.057 43.4128 125.189Z"/><path fill="#FEFEFE" d="M48.1376 126.401C49.8596 127.503 49.3062 130.246 49.1564 132.043C49.0571 133.235 48.5873 133.395 47.7117 134.024C46.3924 133.023 46.567 130.494 46.6739 128.97C46.7744 127.538 47.0826 127.237 48.1376 126.401Z"/><path fill="#040404" d="M140.902 174.984C149.678 174.856 149.655 184.948 143.664 185.433C140.353 184.015 141.212 186.07 138.726 185.359C136.56 183.387 137.085 179.873 139.987 178.684C140.441 178.498 143.856 178.559 144.556 178.553C145.15 180.173 143.411 182.171 143.696 183.993C144.279 184.509 143.987 184.379 144.895 184.37C145.842 183.787 146.118 183.015 146.451 182.011C147.671 178.332 145.562 176.896 142.385 176.034C137.87 176.046 133.826 179.406 135.624 184.064C137.848 189.827 145.251 186.012 146.146 186.338L146.08 186.794C143.863 188.843 138.985 188.845 136.471 187.182C135.059 186.262 134.086 184.803 133.779 183.146C132.934 178.438 136.773 175.75 140.902 174.984Z"/><path fill="#FEFEFE" d="M141.157 179.38C141.623 179.423 141.746 179.512 142.183 179.68L142.438 180.294C142.409 181.896 141.464 183.418 140.565 184.693C140.09 184.505 139.889 184.357 139.457 184.096C138.557 182.303 139.934 180.606 141.157 179.38Z"/><path fill="#040404" d="M140.287 148.306C144.801 147.889 149.833 149.005 148.754 154.846C147.818 159.919 135.651 159.977 138.743 153.84C139.69 151.961 143.863 150.755 145.727 151.829C145.999 153.292 144.68 154.871 144.67 156.907C145.143 157.521 144.872 157.345 145.792 157.467C147.241 156.658 148.146 154.036 147.778 152.44C147.437 150.958 146.142 150.157 144.911 149.418C138.436 148.232 132.847 154.328 138.374 159.332C140.135 160.926 144.495 159.956 146.868 159.702L146.967 159.915C143.384 162.493 137.066 161.994 135.228 157.446C134.598 155.881 134.626 154.129 135.306 152.585C136.347 150.166 137.99 149.259 140.287 148.306Z"/><path fill="#FEFEFE" d="M142.812 152.245L143.331 152.766C143.897 154.606 142.562 156.692 141.209 157.849C138.851 155.974 141.003 153.47 142.812 152.245Z"/><path fill="#040404" d="M142.588 201.943C143.461 201.863 144.341 201.909 145.201 202.079C151.261 203.336 151.888 212.107 145.43 212.142C145.497 212.141 144.138 211.835 143.952 211.809C136.657 214.764 138.986 202.881 146.226 205.664C147.829 207.502 145.188 209.198 145.721 211.111C148.596 212.336 149.463 208.05 148.506 206.038C147.535 203.995 147.421 204.127 145.468 203.102C145.187 203.069 144.905 203.042 144.622 203.022C139.669 202.686 134.811 207.927 138.468 212.356C140.967 215.383 144.683 213.559 148.023 213.64C147.604 214.249 146.587 214.617 145.844 214.879C139.898 216.974 133.275 211.937 136.709 205.688C137.986 203.364 140.173 202.516 142.588 201.943Z"/><path fill="#FEFEFE" d="M143.714 206.123C145.514 207.874 143.673 210.506 142.156 211.82C140.133 209.486 141.779 207.672 143.714 206.123Z"/><path fill="#040404" d="M83.429 125.151C84.3344 125.04 87.7919 125.276 88.7328 125.407L89.104 125.963C89.634 131.341 86.8882 130.371 83.6553 131.873L83.6037 132.303C84.8339 133.235 85.994 132.787 87.6139 132.963C88.2168 133.03 88.7646 133.345 89.1267 133.831C89.7624 134.678 89.5705 135.64 89.4521 136.631C87.5194 138.208 82.6085 139.363 81.0137 137.226C80.7177 135.882 80.8546 136.265 81.6494 134.738C81.4009 134.119 81.2916 133.931 80.9424 133.359C81.2733 131.907 81.3737 132.649 82.3923 131.236C82.3986 128.873 78.382 127.533 83.429 125.151Z"/><path fill="#FEFEFE" d="M84.341 125.742C84.9398 125.891 85.031 125.974 85.5364 126.287C86.443 127.785 86.0046 128.904 85.6545 130.613C84.7781 130.471 84.6077 130.475 84.0193 129.83C83.334 128.304 83.8031 127.261 84.341 125.742Z"/><path fill="#FEFEFE" d="M82.8356 135.366C84.1445 135.324 87.2495 134.822 87.7638 136.187L87.3129 137.058C86.063 137.241 84.3225 137.548 83.2246 136.994C82.6347 136.214 82.7885 136.586 82.8356 135.366Z"/><path fill="#040404" d="M152.303 176.879C152.815 177.435 152.743 178.017 152.817 178.86C155.13 180.831 159.303 178.937 161.998 179.278C162.505 179.637 162.927 179.935 163.262 180.172C164.278 180.23 165.885 179.507 167.067 179.18C169.607 180.193 167.862 184.933 169.31 187.61L169.441 187.847L169.156 188.109C168.134 188.193 166.802 188.458 166.007 187.942C166.163 187.384 166.312 186.824 166.453 186.263C166.855 184.648 167.423 182.343 166.528 180.855C165.562 180.32 165.999 180.428 164.858 180.488C162.931 181.709 163.119 185.165 163.847 187.034C164.344 187.444 164.376 187.443 164.729 187.966C163.635 188.483 161.658 188.209 160.497 187.909C161.059 187.515 161.229 187.36 161.708 186.867C161.794 184.749 162.536 181.346 160.273 180.536C159.497 180.646 159.266 180.603 158.72 181.102C158.194 182.748 158.063 185.544 158.756 187.186C158.955 187.658 159.571 187.715 160.178 187.916C158.596 188.115 157.702 188.265 156.088 188.125C155.307 187.343 159.446 179.021 153.537 180.236C152.248 181.37 152.218 185.397 153.079 186.662C153.806 186.641 154.137 186.625 154.853 186.718C154.398 188.028 153.372 188.581 152.034 188.123C150.722 186.485 150.567 181.804 150.266 179.433C150.937 178.529 151.582 177.744 152.303 176.879Z"/><path fill="#040404" d="M217.432 152.327C220.205 153.275 219.25 152.017 222.054 152.417C222.342 152.579 223.241 153.54 223.58 153.344C229.677 149.816 228.456 155.716 228.697 159.52C228.697 159.521 229.424 160.642 229.571 160.869L229.439 161.233C228.315 161.263 226.964 161.389 225.934 161.036C227.288 159.163 226.831 157.487 226.817 154.906C226.635 153.785 226.251 153.75 225.327 153.536C224.152 153.896 224.576 153.634 223.729 154.546C223.27 155.985 223.384 158.574 223.662 160.056C224.135 160.415 224.472 160.642 224.977 160.954C224.031 161.341 216.743 161.261 215.517 161.047C217.976 157.63 215.682 155.693 216.081 152.983L217.432 152.327Z"/><path fill="#FEFEFE" d="M219.645 153.282C222.15 153.691 222.037 156.131 221.857 158.254C221.707 160.016 221.511 160.163 220.175 161.175C219.655 161.055 219.351 160.789 218.911 160.487C217.66 158.593 217.87 154.869 219.645 153.282Z"/><path fill="#040404" d="M14.3712 121.09C15.6843 121.179 17.2087 121.145 18.5399 121.148C20.173 123.39 22.9785 126.64 24.8135 128.948C24.857 127.768 25.129 123.956 24.7163 122.802C24.6674 122.665 23.8528 122.313 23.4935 121.489C24.3461 121.092 26.3597 121.046 27.2541 121.302C27.1341 122.087 26.3184 121.873 26.045 123.496C25.7334 125.344 26.6529 133.554 25.4785 134.428L24.8046 134.002C22.4115 131.391 19.1875 127.311 16.944 124.484C17.0046 126.987 16.6622 129.822 17.0288 132.319C17.1424 133.093 17.7558 133.208 18.5828 133.688L18.5854 134.163C17.8058 134.283 15.0913 134.427 14.4414 133.997C14.6512 133.744 15.7631 132.317 15.7681 132.166C15.8588 129.433 15.8318 125.926 15.835 123.274C15.1391 122.525 14.5526 122.068 14.3712 121.09Z"/><path fill="#040404" d="M80.3785 201.859C82.0254 201.909 83.7538 202.378 84.4411 203.962C84.374 205.482 83.3814 206.632 82.5018 207.876C83.0004 210.5 88.0454 211.934 82.0805 215.326C76.483 215.573 76.4013 212.765 78.7622 208.756C79.5922 207.346 73.7637 204.307 80.3785 201.859Z"/><path fill="#FEFEFE" d="M80.1584 209.283C82.7172 210.146 83.8517 212.38 81.7644 214.612C78.0663 214.221 78.2348 211.689 80.1584 209.283Z"/><path fill="#FEFEFE" d="M80.0621 202.633C83.5443 202.732 83.2111 205.093 81.3752 207.203C78.8269 206.673 78.5688 204.601 80.0621 202.633Z"/><path fill="#040404" d="M193.884 122.015C195.071 122.477 194.172 123.723 194.702 125.046C195.238 125.182 195.712 125.317 196.241 125.477L196.403 125.874C195.606 126.233 195.194 126.368 194.552 126.992C194.5 128.151 194.292 131.764 194.858 132.623C195.952 132.611 196.589 131.985 197.636 131.346C199.075 131.931 198.586 133.34 200.526 133.645C201.465 133.175 201.334 133.414 201.775 132.643C200.93 130.932 198.075 130.632 197.253 128.03C197.218 124.208 203.047 123.943 203.767 126.805C203.419 127.735 203.683 127.44 202.761 127.893C201.873 126.455 201.388 125.835 199.648 126.308L199.782 126.202L199.564 126.713C200.024 128.37 204.935 129.603 204.163 132.858C202.949 134.433 198.619 134.94 197.265 134.182C197.378 133.481 197.478 133.263 197.242 132.625C195.891 132.785 196.325 133.924 194.397 134.588C193.833 134.569 193.175 134.67 192.832 134.288C191.474 132.779 191.35 127.622 191.172 125.544C191.556 124.526 193.105 122.915 193.884 122.015Z"/><path fill="#040404" d="M125.095 174.989C126.065 175.576 124.885 178.086 125.564 179.642C128.367 179.22 131.498 178.712 131.469 183.094C131.455 185.257 130.712 186.391 129.142 187.836C121.92 190.231 123.686 183.647 123.674 179.142C123.669 176.971 123.715 177.611 122.631 175.657L125.095 174.989Z"/><path fill="#FEFEFE" d="M126.057 180.699C130.376 180.397 130.288 184.556 128.36 187.237C127.154 187.538 126.844 187.465 125.929 186.962C124.884 185.359 124.944 182.192 126.057 180.699Z"/><path fill="#040404" d="M38.9354 174.993C39.8177 175.483 38.8318 177.874 39.4005 179.523C42.5517 179.208 45.3059 179.085 45.3488 183.532C45.3666 185.381 44.2076 186.748 42.8165 187.889C34.9359 190.416 38.0349 181.75 37.5097 177.565C37.4432 177.034 36.6839 176.59 36.5314 175.619L38.9354 174.993Z"/><path fill="#FEFEFE" d="M39.9106 180.71C40.7384 180.649 41.4424 180.579 42.1629 181.089C42.8215 181.555 43.2659 182.266 43.3963 183.062C43.6781 184.71 43.1163 185.91 42.2203 187.209C40.9301 187.509 40.6591 187.481 39.7045 186.896C38.775 185.264 38.7974 182.205 39.9106 180.71Z"/><path fill="#040404" d="M105.861 175.026L106.128 175.059C106.742 176.09 105.892 177.908 106.414 179.561C109.268 179.236 112.265 178.755 112.246 183.04C112.236 185.315 111.61 186.353 109.957 187.861C101.294 190.628 105.802 180.773 104.188 176.835C104.113 176.652 104.23 177.03 103.901 176.296L103.585 175.588L105.861 175.026Z"/><path fill="#FEFEFE" d="M106.957 180.666C107.599 180.651 108.37 180.602 108.933 180.928C109.717 181.389 110.263 182.167 110.427 183.062C110.711 184.672 110.135 185.899 109.289 187.189C108.487 187.396 108.257 187.368 107.424 187.339C105.544 186.077 105.806 182.129 106.957 180.666Z"/><path fill="#040404" d="M73.2178 120.55C75.3809 122.348 76.6738 130.671 80.4299 134.248C78.5621 134.289 76.3573 134.455 74.5727 134.021C73.7609 133.193 75.1168 133.387 75.1018 131.874C74.7067 131.189 74.5089 130.996 73.8471 130.564C67.4048 130.327 70.6953 132.213 70.212 134.016C69.3573 134.382 67.8246 134.554 67.0917 133.944C69.0787 131.521 71.6668 123.964 73.2178 120.55Z"/><path fill="#FEFEFE" d="M72.1716 125.88C72.8509 126.465 73.6212 128.221 73.6887 129.134L73.1971 129.588C72.1127 129.564 71.4224 129.76 70.9677 128.681C71.2932 127.66 71.7102 126.844 72.1716 125.88Z"/><path fill="#040404" d="M79.3166 148.231C88.5852 147.948 86.2145 161.045 77.1859 161.662C77.5881 161.041 80.2799 159.621 81.0758 158.804C81.947 157.909 82.2986 157.342 82.9865 156.311C76.1153 157.462 74.256 151.665 79.3166 148.231Z"/><path fill="#FEFEFE" d="M79.75 148.925C83.2656 149.106 84.1724 153.619 81.9255 155.513C77.7646 155.765 78.0551 151.476 79.75 148.925Z"/><path fill="#040404" d="M149.467 125.053C155.986 124.862 157.034 132.061 151.763 134.496C151.045 134.553 150.476 134.595 149.765 134.435C148.545 134.158 147.496 133.386 146.867 132.305C145.114 129.337 146.831 126.627 149.467 125.053Z"/><path fill="#FEFEFE" d="M150.012 125.722C153.197 126.282 152.036 131.56 151.436 133.721L150.582 133.65C148.423 132 149.128 127.96 150.012 125.722Z"/><path fill="#040404" d="M27.5583 152.588C29.1037 152.047 30.8209 152.387 32.0429 153.477C33.2649 154.567 33.799 156.234 33.4378 157.831C33.0766 159.428 31.8769 160.703 30.3049 161.16C27.9623 161.842 25.5025 160.535 24.7581 158.211C24.0137 155.887 25.2554 153.394 27.5583 152.588Z"/><path fill="#FEFEFE" d="M27.8506 153.113C32.0952 153.372 32.2358 157.86 30.105 160.609C26.1812 160.959 25.9174 155.798 27.8506 153.113Z"/><path fill="#040404" d="M205.619 179.286C212.048 179.015 213.514 184.79 208.57 188.291C202.758 189.247 200.326 182.54 205.619 179.286Z"/><path fill="#FEFEFE" d="M205.93 179.997C210.139 180.455 210.273 184.659 208.183 187.509C204.072 187.741 204.023 182.622 205.93 179.997Z"/><path fill="#040404" d="M208.864 152.329C215.615 151.977 216.541 158.925 211.153 161.5C209.148 161.533 207.564 161.025 206.48 159.223C205.816 158.129 205.639 156.808 205.992 155.578C206.478 153.816 207.397 153.177 208.864 152.329Z"/><path fill="#FEFEFE" d="M209.238 153.072C213.335 153.569 213.351 157.918 211.231 160.674C207.324 160.607 206.874 155.714 209.238 153.072Z"/><path fill="#040404" d="M29.9381 179.307C31.9762 179.109 33.7245 179.311 34.9947 181.104C35.7035 182.088 35.9717 183.323 35.7353 184.513C35.365 186.409 34.538 187.214 33.049 188.25C27.4804 189.477 24.577 182.846 29.9381 179.307Z"/><path fill="#FEFEFE" d="M30.2626 180.079C34.5849 180.241 34.5199 184.9 32.5122 187.609C28.4553 187.463 28.3486 182.793 30.2626 180.079Z"/><path fill="#040404" d="M111.94 152.37C113.838 152.153 115.482 152.284 116.758 153.862C117.543 154.828 117.891 156.077 117.719 157.311C117.452 159.282 116.691 160.148 115.204 161.282C109.179 162.492 106.678 155.708 111.94 152.37Z"/><path fill="#FEFEFE" d="M112.239 153.148C116.554 153.336 116.53 157.882 114.555 160.65C110.474 160.535 110.261 155.833 112.239 153.148Z"/><path fill="#040404" d="M116.015 179.313C118.11 179.117 119.85 179.27 121.16 181.13C121.87 182.123 122.129 183.369 121.875 184.562C121.476 186.503 120.709 187.208 119.161 188.261C113.538 189.406 110.87 182.776 116.015 179.313Z"/><path fill="#FEFEFE" d="M116.376 180.092C120.601 179.983 120.77 185.018 118.668 187.608C114.628 187.421 114.511 182.844 116.376 180.092Z"/><path fill="#040404" d="M190.408 215.061C188.343 215.071 184.407 215.249 182.553 215.015C180.958 213.365 180.818 215.081 178.776 215.161C178.019 215.197 177.278 214.93 176.717 214.42C176.002 211.485 181.067 209.608 181.77 208.24C181.409 207.257 181.663 207.569 180.855 207.01C179.728 207.106 178.589 208.318 177.643 209.106L177.361 208.683C177.44 208.296 177.555 207.346 177.821 207.137C183.616 202.597 183.517 210.052 183.432 213.338C184.476 214.058 184.815 214.497 186.05 214.049C187.7 212.072 186.628 209.097 185.609 207.166C186.116 206.664 187.677 206.287 188.454 206.047C188.387 208.001 187.969 212.147 188.727 213.956C188.974 214.547 189.791 214.557 190.498 214.71L190.408 215.061Z"/><path fill="#FEFEFE" d="M180.836 210.198L181.45 210.429C182.321 212.227 181.545 213.112 179.981 214.025C179.117 213.491 178.957 213.312 178.788 212.412C179.147 211.394 179.981 210.88 180.836 210.198Z"/><path fill="#040404" d="M211.884 206.287C218.528 205.692 219.819 212.099 214.991 215.251C214.276 215.388 213.767 215.427 213.039 215.315C211.83 215.124 210.748 214.457 210.032 213.464C208.148 210.81 209.402 207.962 211.884 206.287Z"/><path fill="#FEFEFE" d="M212.413 206.974C216.622 207.361 216.647 212.028 214.501 214.603C210.572 214.355 210.354 209.621 212.413 206.974Z"/><path fill="#040404" d="M175.451 152.364C183.449 151.608 178.449 157.929 181.287 160.42C185.161 161.173 183.045 155.199 182.509 153.215C182.977 152.641 184.304 152.426 185.153 152.182C185.116 153.332 185.088 154.482 185.067 155.632C185.026 158.098 184.751 159.461 186.366 161.128C185.619 161.214 179.53 161.359 179.3 161.152C177.211 159.268 177.525 161.702 175.061 161.347C174.331 160.959 174.002 160.413 173.806 159.59C173.039 156.354 177.319 156.925 178.628 154.612C178.446 153.641 178.566 153.999 177.824 153.117C176.46 153.333 175.94 154.456 174.433 155.161L174.219 154.667C174.556 153.099 174.326 153.653 175.451 152.364Z"/><path fill="#FEFEFE" d="M177.624 156.374L178.298 156.464C179.206 158.08 178.337 159.315 176.922 160.165C176.059 159.657 175.803 159.416 175.644 158.512C175.996 157.552 176.805 157.052 177.624 156.374Z"/><path fill="#040404" d="M137.705 121.056C138.76 120.871 144.135 121.246 144.787 121.913C144.6 123.718 144.684 124.849 144.781 126.635C142.606 122.974 138.582 118.764 136.436 125.202C135.391 128.338 136.288 132.711 139.929 133.595C142.08 133.129 143.438 131.477 144.862 131.672C141.926 138.115 129.457 133.284 133.122 125.213C134.29 122.641 135.135 122.137 137.705 121.056Z"/><path fill="#040404" d="M121.331 206.236C123.792 207.142 123.956 206.002 126.344 206.296C126.345 206.296 127.395 207.092 127.395 207.092C128.721 206.874 130.572 206.23 131.857 206.665C133.682 208.588 132.353 211.465 133.292 213.91C133.413 214.223 133.443 214.477 133.495 214.803C132.466 214.989 131.369 215.245 130.334 215.19L130.052 214.777C131.779 213.433 131.984 206.301 128.814 207.331C127.483 208.856 127.667 210.878 127.732 212.766C127.83 213.985 128.249 213.86 128.784 214.954C127.852 215.283 125.966 215.32 125.055 214.899C125.638 212.923 126.797 209.623 125.587 207.813C124.844 207.37 124.746 207.315 123.895 207.427C122.005 208.825 122.356 211.25 122.801 213.37C123.016 214.393 123.389 214.192 123.926 214.957C122.967 215.162 120.708 215.42 119.913 214.875C122.021 212.377 120.041 208.714 120.21 206.837L121.331 206.236Z"/><path fill="#040404" d="M120.581 152.285C123.147 153.268 123.223 151.908 125.354 152.434C127.64 154.799 127.978 151.117 130.916 152.606C132.463 154.637 131.524 156.9 131.913 159.255C131.947 159.458 132.727 159.95 132.858 160.921L132.6 161.151C131.132 161.355 130.838 161.38 129.371 161.212L129.157 160.853C130.219 159.308 131.084 153.38 128.465 153.51C128.049 153.529 127.657 153.709 127.372 154.012C126.418 155.037 126.639 156.844 126.685 158.206C126.697 159.412 126.827 159.624 127.494 160.641L127.673 160.91C127.002 161.427 125.41 161.206 124.543 161.109C124.003 160.341 126.264 155.318 123.921 153.498C121.022 153.612 121.413 156.657 121.525 158.882C121.583 160.048 122.037 160.267 122.877 160.904C122.267 161.42 119.719 161.171 118.877 161.111L118.654 160.796C121.635 158.561 118.64 155.203 119.358 152.895L120.581 152.285Z"/><path fill="#040404" d="M166.727 206.367C167.041 206.284 167.684 206.274 168.037 206.254C171.076 208.308 170.448 205.281 173.718 206.349C174.534 207.368 175.925 214.116 175.433 215.074C174.297 215.123 172.878 215.35 172.004 214.863C173.652 213.436 173.712 208.99 172.259 207.443C171.041 207.46 171.507 207.327 170.471 207.912C169.205 209.573 169.274 213.384 170.72 214.794L170.768 214.911L170.368 215.145C169.407 215.155 167.798 215.294 167.032 214.874C168.342 213.281 168.473 209.461 167.462 207.833C166.633 207.23 167.013 207.338 166.042 207.384C163.087 209.028 164.747 212.426 165.678 214.918L165.331 215.152C162.598 215.182 161.917 215.48 162.632 212.561C163.275 209.933 163.141 209.297 161.987 207.132C163.24 205.962 164.813 206.964 166.727 206.367Z"/><path fill="#040404" d="M220.302 206.182C222.891 207.118 222.828 206.039 225.36 206.308C225.361 206.308 226.408 207.101 226.408 207.101C227.725 206.841 229.59 206.2 230.897 206.665C232.392 208.227 231.617 210.15 231.936 212.175C232.02 212.704 232.625 214.208 232.838 214.744L232.666 215.033C231.96 215.086 230.127 215.291 229.484 215.071C229.423 215.036 229.362 215 229.301 214.965C229.915 212.758 230.687 210.122 230.011 207.875C229.009 206.765 228 207.378 227.051 208.332C226.536 209.536 226.723 211.397 226.756 212.762C226.876 213.554 227.248 214.074 227.642 214.777L227.419 215.072C226.312 215.125 225.226 215.236 224.142 215.024C225.203 213.179 225.771 208.829 223.966 207.394C223.379 207.422 222.61 207.43 222.316 208.006C221.105 210.374 220.853 213.139 222.938 214.776L222.701 215.042C221.889 215.134 219.26 215.246 218.776 214.769C221.441 212.344 219.088 209.567 219.155 207.008L220.302 206.182Z"/><path fill="#040404" d="M160.457 152.324C162.378 153.404 163.149 151.954 165.331 152.438C165.855 152.971 165.934 153.116 166.606 153.393C168.134 152.826 168.95 151.609 170.523 152.532C172.415 153.642 171.506 156.688 171.788 158.456C171.905 159.184 172.328 160.315 172.531 161.064L172.241 161.407C168.148 160.744 169.633 160.967 170.085 157.717C170.277 156.332 170.262 153.878 168.595 153.493C165.881 154.404 166.566 156.642 166.64 159.153C166.912 160.258 166.977 160.056 167.869 160.979C167.112 161.415 165.264 161.407 164.504 160.943C163.789 158.872 166.618 155.199 163.46 153.261C161.303 153.902 160.185 159.042 162.696 160.866L162.499 161.098C161.562 161.229 159.235 161.452 158.574 160.87C161.44 157.926 158.765 155.723 159.234 152.966L160.457 152.324Z"/><path fill="#040404" d="M35.4621 206.23C37.1725 207.073 39.646 205.901 40.1023 206.278C42.1875 208.002 43.2208 205.803 45.6494 206.578C47.421 208.442 46.0945 210.721 47.0317 213.111C47.16 213.438 47.3132 214.279 47.3876 214.65L47.0112 215.054C45.9719 215.159 44.9892 215.379 44.0512 215.012C44.8231 213.219 46.0414 208.309 43.6483 207.403C42.7015 207.599 42.5742 207.626 41.824 208.228C41.3705 209.4 41.5502 211.711 41.5754 213.059C41.8521 214.241 41.7139 213.862 42.7753 214.758L42.7355 215C41.4936 215.086 39.9882 215.27 38.8044 214.999C39.5642 212.724 40.5165 210.74 39.6119 208.101C38.9114 207.346 39.2832 207.542 38.1816 207.414C35.4459 208.737 35.6948 213.732 38.0178 214.884C36.7876 215.094 34.7366 215.453 33.6312 214.819C36.6809 211.679 33.5976 209.921 34.1394 206.862L35.4621 206.23Z"/><path fill="#040404" d="M214.405 179.34C217.25 180.286 217.15 178.152 220.001 180.156C221.009 180.247 222.705 179.476 224.058 179.222C226.946 180.517 224.048 185.078 226.611 187.859L226.391 188.198C225.189 188.208 223.987 188.158 222.79 188.05L222.619 187.765C224.218 186.778 224.729 181.275 222.25 180.485C219.606 181.22 220.284 183.492 220.353 185.813C220.358 186.008 220.495 186.679 220.536 186.912C221.254 187.338 221.395 187.367 221.853 188.034L221.685 188.215C221.382 188.156 218.66 188.35 217.919 188.348C217.317 187.667 218.533 187.014 218.545 186.028C218.563 184.419 219.089 181.766 217.869 180.572C213.415 179.987 215.4 185.449 216.016 187.821L215.659 188.133C214.311 188.257 213.838 188.297 212.504 188.15L212.396 187.792C215.196 184.621 212.118 181.92 212.979 179.867L214.405 179.34Z"/><path fill="#040404" d="M36.3881 152.33C38.3639 153.06 40.1364 151.885 41.0476 152.546C43.1256 154.053 43.2487 152.491 45.77 152.517C48.334 152.543 47.1741 158.069 47.4953 159.711C47.5069 159.771 48.4754 160.903 48.5551 160.996C47.8404 161.528 45.2949 161.187 44.3665 160.978L45.5459 160.053C45.9415 158.415 46.333 154.192 44.3847 153.495C41.5488 154.426 42.2215 155.888 42.3215 158.567C42.2437 160.214 42.6021 160.282 43.8164 161.009C42.7836 161.117 40.5383 161.563 39.8855 160.693C40.416 158.737 41.3279 155.435 39.9697 153.669C35.747 152.291 37.4173 159.321 37.7169 161.163C36.6197 161.356 35.6451 161.215 34.5367 161.119L34.35 160.852C36.6137 158.449 35.4386 157.364 34.9383 154.491C34.607 152.588 34.7722 152.932 36.3881 152.33Z"/><path fill="#040404" d="M161.91 125.18C166.752 125.027 163.62 130.131 165.589 133.782L165.654 133.902C164.841 134.482 163.156 134.838 162.167 134.601C160.307 132.799 163.206 130.272 161.734 127.128C160.908 126.487 161.175 126.673 159.933 126.685C158.93 130.251 160.245 133.571 160.034 134.189C159.068 134.411 157.412 134.476 156.525 133.936C156.046 132.913 156.811 130.258 156.647 128.722C156.543 127.741 156.254 126.262 156.198 125.429C158.088 124.988 159.578 125.945 161.91 125.18Z"/><path fill="#040404" d="M30.3822 125.11C38.8705 123.948 34.6324 130.751 36.9995 133.618L36.8443 134.001C35.2851 134.391 33.9898 134.177 32.4266 134.183C30.3182 134.19 29.8908 134.955 28.1738 133.442C28.037 129.515 30.7097 130.332 33.1521 128.149C33.2278 127.277 32.8534 126.228 32.178 125.683C30.9059 126.311 31.0614 128.116 29.6562 129.074L29.1838 128.91C28.5192 127.809 28.5016 128.135 28.5466 127.001C29.0929 125.883 29.3485 125.776 30.3822 125.11Z"/><path fill="#040404" d="M175.463 125.057C181.676 124.912 180.598 127.03 181.026 131.923C181.085 132.596 181.698 133.325 181.487 133.931C179.351 134.466 177.444 133.953 175.243 134.383C174.274 134.573 173.748 134.052 173.115 133.534C173.006 132.795 173.022 132.543 173.049 131.791C174.114 129.504 175.52 130.07 177.632 128.717C178.137 127.757 178.028 128.189 177.934 127.001C177.258 126.049 177.609 126.311 176.631 125.879C175.592 126.671 175.911 127.468 175.016 129.016L174.533 129.103C172.344 127.38 173.529 126.123 175.463 125.057Z"/><path fill="#040404" d="M73.1569 174.804C75.5117 176.241 71.5397 182.131 75.3897 183.666L75.6872 183.781L75.8215 184.308L75.5273 184.734L75.2959 184.773C72.5485 185.257 74.632 186.528 73.4074 188.256L72.6381 188.133C72.0341 187.422 72.1484 186.45 72.1073 185.447C71.6203 184.783 67.2291 184.834 66.1272 184.775C67.2382 182.495 71.4077 176.744 73.1569 174.804Z"/><path fill="#FEFEFE" d="M71.9025 178.024C72.1542 178.785 72.0924 182.402 72.0976 183.44L68.3461 183.433C68.1862 182.542 71.2191 178.854 71.9025 178.024Z"/><path fill="#040404" d="M18.2243 201.913C19.3352 201.926 21.5749 202.465 22.7527 202.71C22.8136 202.913 23.1422 206.668 23.1874 207.146C22.1009 205.277 20.8709 202.915 18.4572 202.869C17.6998 203.292 17.6927 203.432 17.2722 204.242C17.3063 207.698 29.9519 211.224 19.9091 215.433C18.4808 215.218 16.9278 215.195 15.6441 214.799C14.6278 213.89 14.6345 211.518 14.4737 210.036C15.847 212.205 19.2478 217.367 21.2691 212.509C20.8325 209.262 9.40391 205.387 18.2243 201.913Z"/><path fill="#040404" d="M56.5531 125.05C60.218 124.914 60.7257 126.311 61.6687 129.504C59.5333 129.461 58.4069 129.585 56.3017 129.833C56.973 131.305 57.155 132.036 58.5608 132.704C59.6168 132.744 60.4371 132.104 61.3675 131.551C61.7102 133.444 59.2198 134.585 57.5522 134.301C56.1377 134.07 54.8826 133.262 54.0872 132.07C52.2432 129.271 54.046 126.547 56.5531 125.05Z"/><path fill="#040404" d="M93.552 125.014C95.6837 125.054 98.7152 126.796 98.16 128.976C97.4286 129.69 94.3463 129.701 92.9729 129.848C93.4315 130.958 93.8298 132.131 94.944 132.618C96.0968 132.773 97.1935 132.125 98.2763 131.629C95.9556 139.48 84.3851 129.631 93.552 125.014Z"/><path fill="#040404" d="M14.295 148.34C17.9955 148.24 21.6984 148.265 25.3972 148.413C25.423 149.515 25.5222 150.562 25.2039 151.613C24.0154 151.488 23.9666 147.927 21.2497 149.96C20.1531 152.098 20.7513 157.337 20.8686 159.999C21.5447 160.289 21.7191 160.378 22.3167 160.806L22.1775 161.118C20.5875 161.244 18.8653 161.298 17.2742 161.195L17.1056 160.872C17.5233 160.573 18.6781 159.777 18.6698 159.362C18.6364 157.676 19.0529 150.518 18.4292 149.419C16.7684 148.987 15.6427 150.292 14.4278 151.294C14.0124 150.782 14.2571 149.176 14.295 148.34Z"/><path fill="#040404" d="M27.8205 205.941C34.0193 206.187 30.3264 209.897 32.126 213.425C32.2371 213.643 32.9644 214.57 33.1507 214.825C31.2831 216.137 31.1359 213.414 27.5763 215.15C26.4877 215.153 26.2653 214.956 25.3717 214.403C24.6132 209.647 28.4775 210.801 29.8079 208.804C29.979 207.956 30.0312 207.813 29.6703 207.039L29.22 206.885C28.06 207.17 26.9305 208.266 25.9759 209.057L25.541 208.487C25.583 208.323 25.6288 208.161 25.6784 207.999C26.0827 206.716 26.6403 206.564 27.8205 205.941Z"/><path fill="#FEFEFE" d="M29.1489 210.257L29.7991 210.548C30.6052 212.324 29.484 213.32 28.0664 214.062C27.2309 213.095 27.281 213.428 27.1259 212.301C27.4901 211.333 28.2876 210.904 29.1489 210.257Z"/><path fill="#040404" d="M173.653 179.062C178.037 179.594 176.715 181.632 176.974 184.975C177.111 186.753 178.19 186.535 178.284 187.848C176.875 188.524 176.714 188.43 175.609 187.547C173.51 186.993 173.686 189.43 170.683 187.498C169.793 183.057 174.727 183.614 175.129 180.717C173.079 178.388 172.966 181.52 171.587 182.135L171.123 181.918C170.819 179.799 171.89 179.472 173.653 179.062Z"/><path fill="#FEFEFE" d="M174.398 183.247L175 183.425C175.861 185.235 174.995 186.094 173.571 187.04C172.64 186.31 172.69 186.57 172.368 185.593C172.579 184.619 173.61 183.925 174.398 183.247Z"/><path fill="#040404" d="M115.367 206.643C113.718 206.771 113.89 207.202 113.354 208.586C112.571 209.051 112.861 209.04 112.153 208.878L111.943 208.155C112.55 205.956 113.88 205.921 115.829 206.05C119.631 207.771 116.552 210.81 118.999 214.636L118.731 215.091C117.414 215.295 116.006 214.238 115.736 214.328C113.998 214.909 112.966 216.418 111.194 213.609C111.095 210.816 115.169 210.364 116.102 208.301C115.967 207.447 115.881 207.346 115.367 206.643Z"/><path fill="#FEFEFE" d="M115.316 210.25L115.997 210.432C116.814 212.113 115.782 213.17 114.478 213.99C113.566 213.401 113.417 213.321 113.261 212.353C113.595 211.446 114.536 210.861 115.316 210.25Z"/><path fill="#040404" d="M70.9075 201.889C79.5161 203.107 71.9317 210.821 69.2644 213.563C71.6186 213.477 73.8749 212.825 75.3215 212.862L75.5338 213.303L74.785 215.037L70.6787 215.051C69.6857 215.105 68.7513 215.27 67.8759 214.877L67.6838 214.344C68.5474 211.82 76.4159 206.979 71.3481 203.676C69.03 203.475 69.1828 204.66 67.4599 205.772L67.1545 205.359C67.1907 203.651 69.415 202.294 70.9075 201.889Z"/><path fill="#040404" d="M169.483 122.036C170.987 122.616 169.59 123.545 170.404 125.037C171.147 125.184 171.264 125.173 171.89 125.567L171.806 126.186C171.334 126.315 170.858 126.431 170.38 126.532C170.036 127.434 170.024 131.995 170.5 132.707C171.202 132.43 171.343 132.388 172.092 132.302C172.166 133.145 171.915 133.173 171.323 134.011C165.785 136.254 167.564 129.796 167.283 126.851C167.283 126.851 166.537 125.914 166.472 125.831C166.607 125.258 168.877 122.786 169.483 122.036Z"/><path fill="#040404" d="M185.803 125.066C187.547 125.019 189.686 125.357 190.413 127.186L190.121 127.717C187.104 129.884 188.168 127.014 186.971 125.84C184.108 126.638 185.076 131.735 187.749 133.106C188.764 132.643 188.984 132.325 189.922 132.488L189.871 133.014C184.579 138.364 178.406 128.584 185.803 125.066Z"/><path fill="#040404" d="M69.5014 148.274C70.9129 148.052 72.1838 148.126 73.5264 148.609C75.2138 150.417 73.0134 151.911 73.5785 153.668C74.3039 155.922 76.2039 157.597 73.9957 159.812C72.6096 161.201 67.4179 162.664 67.7347 159.634L68.3437 159.416L68.9915 159.732C71.5996 160.932 73.6779 159.98 73.2247 156.88C72.9592 155.062 70.902 155.46 69.7306 154.416L70.0315 154.777L69.7372 154.417C71.0103 153.237 72.8074 152.587 72.8625 150.799C71.3662 148.465 69.394 150.02 67.6109 150.803L68.1027 150.563L67.6866 150.285C67.987 149.77 69.0396 148.751 69.5014 148.274Z"/><path fill="#040404" d="M152.218 206.253C153.278 206.227 154.124 206.156 155.162 206.398C156.024 207.162 155.769 206.946 156.023 208.298L156.581 208.483C157.228 207.964 157.14 207.529 157.383 206.555C157.991 205.965 158.705 205.979 159.396 206.375L159.333 206.963C158.335 207.977 157.878 208.669 157.062 209.847C158.111 211.544 159.344 213.045 160.523 214.672L160.418 215.042L159.366 215.174C158.682 215.216 158.448 215.207 157.768 215.123C156.877 214.064 157.438 213.363 156.729 212.064L156.015 211.873C154.48 212.801 154.957 215.488 152.931 215.457C152.404 215.053 152.384 215.176 152.242 214.668C153.528 213.575 154.51 211.939 155.468 210.524C154.251 208.647 153.754 207.885 152.218 206.253Z"/><path fill="#040404" d="M82.1789 186.64L82.3126 186.358C84.4035 181.897 80.6152 183.073 79.5316 181.427C80.6756 179.746 82.0524 180.449 82.2707 178.028C81.6922 176.94 82.0323 177.3 80.9885 176.66C79.5503 176.51 78.5896 177.093 77.2162 177.647C78.9662 174.578 82.2581 173.577 83.841 177.234C84.3217 178.344 82.6876 180.012 82.8453 180.316C84.4428 183.396 86.2136 184.513 82.3687 187.417C82.0649 187.003 82.1651 187.243 82.1789 186.64Z"/><path fill="#040404" d="M152.874 152.31C154.127 152.241 155.556 152.098 156.499 152.734C156.913 153.562 157.036 153.659 156.884 154.517C155.752 154.89 156.133 153.203 154.22 152.906C153.23 153.539 153.438 153.21 153.188 154.105C154.252 156.329 161.115 158.368 155.279 161.463C153.771 161.401 152.619 161.586 151.633 160.634C151.514 159.709 151.409 159.35 151.618 158.427L152.046 158.372C152.81 159.693 152.896 160.241 154.446 160.484C155.209 160.23 155.397 160.241 155.834 159.623C155.304 157.304 148.893 156.165 152.874 152.31Z"/><path fill="#040404" d="M186.537 175.008L186.865 174.893C187.032 174.955 187.199 175.018 187.365 175.081C187.564 178.884 187.156 183.003 187.515 186.763C187.946 187.252 188.292 187.645 188.555 187.943C187.829 188.327 186.329 188.128 185.378 188.1C184.762 188.186 184.762 188.226 184.171 187.964C184.78 187.41 184.973 187.121 185.457 186.45C185.677 184.236 185.69 179.432 185.438 177.109C185.017 176.58 184.661 176.133 184.37 175.768C184.842 175.094 185.484 175.204 186.537 175.008Z"/><path fill="#040404" d="M106.324 205.975C107.491 206.067 108.424 206.058 109.299 206.814C109.776 207.8 109.714 207.351 109.434 208.537C108.516 208.687 108.327 207.222 106.674 206.69C105.898 207.137 106.154 206.893 105.782 207.878C106.476 209.991 114.542 212.958 107.182 215.422C105.711 215.242 105.126 215.29 104.106 214.19C103.785 213.194 103.809 213.626 104.17 212.488L104.519 212.469C105.408 213.417 106.184 214.58 107.531 214.528C108.262 213.751 108.105 214.105 108.299 213.176C107.221 211.01 103.65 210.648 104.189 207.667C104.947 206.604 105.143 206.532 106.324 205.975Z"/><path fill="#040404" fill-opacity="0.98431373" d="M190.498 214.71C191.141 214.35 191.501 214.323 191.616 213.556C191.972 211.174 192.066 205.994 191.671 203.836L190.537 202.742C191.113 202.142 192.652 201.88 193.587 201.619C193.588 204.399 193.428 211.435 193.722 213.878L194.75 214.731L194.572 215.125C193.183 215.128 191.795 215.106 190.408 215.061L190.498 214.71Z"/><path fill="#040404" d="M200.124 152.336C200.555 152.288 200.988 152.263 201.422 152.261C202.721 152.267 204.021 152.985 204.929 153.877C204.957 156.704 202.058 153.07 200.165 153.199C198.044 154.798 198.52 159.269 202.383 159.853C203.554 158.892 204.741 157.949 205.942 157.027C205.574 157.596 204.448 159.492 204.059 159.81C198.615 164.246 194.169 156.611 200.124 152.336Z"/><path fill="#040404" d="M196.958 179.339C198.933 179.09 200.16 179.301 201.677 180.669L201.666 181.253C201.445 181.441 201.202 181.648 200.937 181.874C199.5 181.132 198.451 180.098 196.781 180.38C194.883 181.97 195.596 186.571 199.31 186.735C200.579 185.684 201.486 185.024 202.856 184.105C202.265 185.025 201.554 186.238 200.729 186.947C197.374 189.834 193.439 186.982 194.248 182.959C194.625 181.086 195.442 180.38 196.958 179.339Z"/><path fill="#040404" d="M204.186 205.999C205.756 206.132 207.078 206.35 207.917 207.749C207.7 208.703 207.901 208.424 207.248 209.015C207.029 208.974 202.177 203.287 202.436 211.066C202.493 212.757 204.343 213.908 206.222 213.416C206.678 212.918 206.906 212.738 207.436 212.313L207.783 212.502C207.244 214.545 205.095 215.659 203.06 215.022C202.193 214.756 201.476 214.14 201.084 213.323C199.621 210.326 201.212 207.254 204.186 205.999Z"/><path fill="#040404" d="M189.767 148.026L190.16 147.986C191.132 149.131 189.671 158.3 190.909 160.142C191.145 160.495 191.272 160.864 191.43 161.254L187.72 161.211L186.899 160.999C187.41 160.694 187.838 160.404 188.329 160.068C189.166 158.936 188.579 152.777 188.73 151.05C188.827 149.946 188.269 149.696 187.504 148.959L187.655 148.596L189.767 148.026Z"/><path fill="#040404" d="M106.098 149.883L106.458 150.418C106.128 152.578 106.351 151.958 108.068 152.547L108.121 152.95C107.139 153.588 105.973 154.373 106.14 155.789C106.265 156.848 106.155 159.306 106.827 159.98C107.414 159.775 107.889 159.541 108.498 159.624L108.656 160.294C107.285 161.126 106.782 161.69 105.261 161.014C104.121 159.541 104.599 156.013 104.528 153.946C104.072 153.419 103.789 153.215 103.698 152.558L106.098 149.883Z"/><path fill="#040404" d="M181.48 179.372C182.573 179.548 181.604 185.785 182.222 186.917C182.301 187.061 182.838 187.764 182.959 187.931C182.282 188.263 180.189 188.231 179.368 188.244C179.168 188.131 178.998 187.919 178.823 187.741L179.631 187.271C180.819 185.79 180.54 181.701 179.146 180.268L179.302 179.901L181.48 179.372Z"/><path fill="#262426" d="M82.3687 187.417C81.2514 188.377 77.6911 189.035 77.0158 187.174C78.1117 185.571 79.1421 187.943 82.1789 186.64C82.1651 187.243 82.0649 187.003 82.3687 187.417Z"/></svg>